<?xml version="1.0" encoding="utf-8"?>
<!-- Generator: Adobe Illustrator 23.0.3, SVG Export Plug-In . SVG Version: 6.00 Build 0)  -->
<svg version="1.1"
	 id="Layer_1" inkscape:version="0.92.3 (2405546, 2018-03-11)" sodipodi:docname="IT consulting.svg" xmlns:cc="http://creativecommons.org/ns#" xmlns:dc="http://purl.org/dc/elements/1.1/" xmlns:inkscape="http://www.inkscape.org/namespaces/inkscape" xmlns:rdf="http://www.w3.org/1999/02/22-rdf-syntax-ns#" xmlns:sodipodi="http://sodipodi.sourceforge.net/DTD/sodipodi-0.dtd" xmlns:svg="http://www.w3.org/2000/svg"
	 xmlns="http://www.w3.org/2000/svg" xmlns:xlink="http://www.w3.org/1999/xlink" x="0px" y="0px" viewBox="0 0 1431 776"
	 style="enable-background:new 0 0 1431 776;" xml:space="preserve">
<style type="text/css">
	.st0{fill:#D1F5FF;}
	.st1{fill:none;}
	.st2{fill:#E4EFFF;}
	.st3{fill:#D1DBEA;}
	.st4{fill:#FFFFFF;}
	.st5{fill:#B0BFDE;}
	.st6{fill:#3D7AA8;}
	.st7{fill:#0C1153;}
	.st8{enable-background:new    ;}
	.st9{fill:#FFC910;}
	.st10{fill:#FFAB01;}
	.st11{fill:#F99B0F;}
	.st12{fill:#FFCA10;}
	.st13{fill:#3BB6D5;}
	.st14{fill:#F4DA80;}
	.st15{fill:#FEC12F;}
	.st16{fill:#34688F;}
	.st17{fill:#163F59;}
	.st18{fill:#593446;}
	.st19{fill:#194866;}
	.st20{fill:#081832;}
	.st21{fill:#E2C59C;}
	.st22{fill:#E9D6B8;}
	.st23{fill:#161711;}
	.st24{fill:#3C463B;}
	.st25{fill:#854638;}
	.st26{fill:#AD5C49;}
	.st27{fill:#323B31;}
	.st28{fill:#B6C2C9;}
	.st29{fill:#879BA6;}
	.st30{fill:#E4EEF3;}
	.st31{fill:#E5E8EC;}
	.st32{fill:#CDD5D7;}
	.st33{fill:#E67A61;}
	.st34{fill:#B7BEC0;}
	.st35{fill:#282723;}
	.st36{fill:#B5D1DE;}
	.st37{fill:#FDBF14;}
</style>
<sodipodi:namedview  bordercolor="#666666" borderopacity="1" gridtolerance="10" guidetolerance="10" id="namedview2029" inkscape:current-layer="Layer_1" inkscape:cx="1025.0356" inkscape:cy="556.49225" inkscape:pagecheckerboard="true" inkscape:pageopacity="0" inkscape:pageshadow="2" inkscape:window-height="1001" inkscape:window-maximized="1" inkscape:window-width="1920" inkscape:window-x="-9" inkscape:window-y="-9" inkscape:zoom="0.33883058" objecttolerance="10" pagecolor="#ffffff" showgrid="false">
	</sodipodi:namedview>
<path id="path6" inkscape:connector-curvature="0" class="st0" d="M-140,2188.2"/>
<line id="line8" class="st1" x1="-212" y1="930.2" x2="-363" y2="-811"/>
<rect id="rect230" x="-58.8" y="-394.8" class="st1" width="2000.7" height="1146.2"/>
<path id="path226" inkscape:connector-curvature="0" class="st2" d="M1417.6,596.4c29.6-11.2,37.4-64.2-312.9-45.2
	c-100.2,5.4-410.9,21-600.1,20.6c-350.7-0.7-633.6,55.5-443.5,86.8c53.1,8.8-88.5,118.2,282.1,117.4
	C1244.1,773.9,1384,609.2,1417.6,596.4"/>
<path id="path228" inkscape:connector-curvature="0" class="st2" d="M511.3,584.1c-10.2-13.2,2.5-24.3,50.7-30.3
	c52.6-6.5,102.9-2.1,144.3,6C608.8,519.9,495,464,598.9,457.5c32.4-2,82.2,11.2,137.6,31.8c-61.8-42.4-95.8-77.2-58.4-83.7
	c34.8-6,105.6,28.5,181.1,74.2c-43-38.3-67.9-71.8-48.6-87.6c15.8-12.9,49.4,1.9,88.1,29.3c-1.7-24.1,10.3-38.6,37.7-35.7
	c25.8,2.8,46.7,30.6,61.6,64.1c24.7-51.9,90.1-83.6,156-67.8c77.4,18.5,15.2,142.9-19.4,202L511.3,584.1L511.3,584.1z"/>
<g id="g258">
	<path id="path232" inkscape:connector-curvature="0" class="st3" d="M249,576.8c-3.5,1.3-34.8,5.5-43.3,26.5
		c-6.8,16.7-14.5,11.7-19.2,5.2c-4.7-6.5-6.2-14.8-14.9-9.5c-28.4,17.4-61.3,12.4-48.6-6.5c6.8-10.2-6.6-16.9-13.8-12.7
		c-15.5,9-30,8-26.2-4.8c3.7-12.6,0.9-20.8-6.9-19.4c-7.8,1.4-19.7,11.4-24.4-3.1c-1.9-5.7,6.8-18.1,19-20.4
		c7-1.3,29.3,0.6,18.5-13.7c-11.2-14.7,3.6-17.8,12.2-12.3c3.2,2,34.4,18.3,31.5,7.1c-3.5-13.3,7.8-17.2,20.7-5.2
		c5.8,5.4,14.9,21.1,19.2,15.7c4.3-5.4,11.9-11.4,20.7-3C208.6,535.3,241.7,579.6,249,576.8L249,576.8z"/>
	<g id="g236">
		<path id="path234" inkscape:connector-curvature="0" class="st4" d="M273.5,581.6c-27.5-2.2-47.1-9.2-79.6-20.8
			c-9.3-3.3-19.7-7-31.8-11.2C108.5,531.3,60.5,546,60,546.1l-0.5-1.5c0.5-0.2,49-15,103.1,3.5c12,4.1,22.5,7.9,31.8,11.2
			c32.3,11.5,51.9,18.5,79.2,20.7L273.5,581.6z"/>
	</g>
	<g id="g240">
		<path id="path238" inkscape:connector-curvature="0" class="st4" d="M98,568.3l-1.3-0.9c0.7-0.9,16.5-22.7,35.5-26.6l0.3,1.5
			C114.1,546.1,98.1,568.1,98,568.3L98,568.3z"/>
	</g>
	<g id="g244">
		<path id="path242" inkscape:connector-curvature="0" class="st4" d="M136.6,543c-23.8-8.3-40.5-29.8-40.6-30l1.2-1
			c0.2,0.2,16.5,21.3,39.9,29.5L136.6,543z"/>
	</g>
	<g id="g248">
		<path id="path246" inkscape:connector-curvature="0" class="st4" d="M135,596.3l-0.5-1.5l0.3,0.7l-0.3-0.7
			c0.1,0,12.9-4.7,47.8-39.1l1.1,1.1C148.1,591.7,135.6,596.1,135,596.3z"/>
	</g>
	<g id="g252">
		<path id="path250" inkscape:connector-curvature="0" class="st4" d="M166.2,550.9c-7.6-6.7-26.3-42.5-27.1-44l1.4-0.7
			c0.2,0.4,19.4,37,26.8,43.6L166.2,550.9z"/>
	</g>
	<g id="g256">
		<path id="path254" inkscape:connector-curvature="0" class="st4" d="M214.9,568.1c-18.4-11.5-30.4-42.6-30.9-44l1.5-0.6
			c0.1,0.3,12.3,31.9,30.3,43.2L214.9,568.1z"/>
	</g>
</g>
<g id="g280">
	<g id="g274">
		<path id="path260" inkscape:connector-curvature="0" class="st5" d="M75.3,495.5c0,0-6.5-2.8-9.5-8.9c-1.1-2.2-1.1-6.9,1.2-8
			c2.3-1.1,5.5,0.7,7.1,3.9C77,488.5,75.3,495.5,75.3,495.5L75.3,495.5z"/>
		<path id="path262" inkscape:connector-curvature="0" class="st5" d="M81,505.1c0,0-2.1-5.9,0.1-11.3c0.8-2,3.8-4.7,5.9-3.8
			c2.1,0.8,2.8,4,1.7,6.8C86.6,502.3,81,505.1,81,505.1z"/>
		<path id="path264" inkscape:connector-curvature="0" class="st5" d="M85.4,517.5c0,0,0.5-6.2,4.7-10.3c1.5-1.5,5.4-2.7,7-1.1
			c1.6,1.6,0.9,4.8-1.3,6.9C91.7,517.2,85.4,517.5,85.4,517.5L85.4,517.5z"/>
		<path id="path266" inkscape:connector-curvature="0" class="st5" d="M81,505.5c0,0-5.2,2.5-10.9,1.6c-2.1-0.3-5.4-2.4-5.1-4.2
			s3.2-2.9,6.2-2.4C76.9,501.4,81,505.5,81,505.5L81,505.5z"/>
		<path id="path268" inkscape:connector-curvature="0" class="st5" d="M86.2,517.2c0,0-5.2,2.7-11,1.8c-2.1-0.3-5.4-2.5-5.1-4.4
			c0.3-1.9,3.2-3,6.3-2.5C82.1,513,86.2,517.2,86.2,517.2L86.2,517.2z"/>
		<path id="path270" inkscape:connector-curvature="0" class="st5" d="M90.3,534.4c0,0-4.1,2.9-8.5,2.2c-1.6-0.3-4.1-2.3-3.8-4.2
			s2.6-3.2,4.9-2.8C87.3,530.4,90.3,534.4,90.3,534.4L90.3,534.4z"/>
		<path id="path272" inkscape:connector-curvature="0" class="st5" d="M90.9,534.2c0,0,0-4.8,2.8-8.6c1-1.4,3.9-2.9,5.2-1.9
			c1.3,1,1,3.5-0.5,5.5C95.6,532.9,90.9,534.2,90.9,534.2L90.9,534.2z"/>
	</g>
	<g id="g278">
		<path id="path276" inkscape:connector-curvature="0" class="st5" d="M121.4,598.7c1.5-0.1,2.4-0.6,2.4-0.7l-0.6-1l0.3,0.5
			l-0.3-0.5c-0.1,0.1-2.4,1.3-6.1-0.3c-4.1-1.9-8.1-6.6-11.8-14c-5.1-10.2-9.7-25.3-13.5-44.8c-4.4-22.7-10.8-33.5-15-40.7
			c-1.1-1.8-2-3.4-2.7-4.8l-1.1,0.5c0.7,1.5,1.6,3.1,2.7,5c4.2,7.1,10.5,17.9,14.9,40.4c8.5,43.5,18.8,56.5,26,59.7
			C118.6,598.6,120.2,598.8,121.4,598.7L121.4,598.7z"/>
	</g>
</g>
<g id="g322">
	<g id="g284">
		<path id="path282" inkscape:connector-curvature="0" class="st3" d="M1124.8,484.4c21-39.8,24.7-77.3,24.2-101.7
			c-0.6-26.5-6.3-43.9-6.4-44l-1.6,0.5c0.1,0.2,5.7,17.3,6.3,43.6c0.6,24.2-3.1,61.4-24,100.9L1124.8,484.4z"/>
	</g>
	<path id="path286" inkscape:connector-curvature="0" class="st3" d="M1142.6,340.9c0,0,1.5-5.1-0.3-10c-0.7-1.8-3.1-4.3-4.8-3.7
		c-1.6,0.6-2.1,3.4-1.2,5.9C1138.2,338.1,1142.6,340.9,1142.6,340.9L1142.6,340.9z"/>
	<path id="path288" inkscape:connector-curvature="0" class="st3" d="M1144.4,349.8c0,0-1.6-4.5-5.5-7.2c-1.4-1-4.5-1.7-5.4-0.4
		c-0.9,1.2,0.2,3.5,2.3,4.9C1139.7,349.9,1144.4,349.8,1144.4,349.8z"/>
	<path id="path290" inkscape:connector-curvature="0" class="st3" d="M1146.1,365.1c0,0-1.7-4-5.3-5.7c-1.3-0.6-4.1-0.5-4.8,0.9
		c-0.7,1.4,0.4,3.4,2.3,4.3C1141.9,366.3,1146.1,365.1,1146.1,365.1L1146.1,365.1z"/>
	<path id="path292" inkscape:connector-curvature="0" class="st3" d="M1143.8,349.4c0,0,4.3-0.1,7.2-2.8c1.1-1,2-3.6,1-4.8
		c-1.1-1.2-3.3-0.8-4.8,0.6C1144.2,345.1,1143.8,349.4,1143.8,349.4z"/>
	<path id="path294" inkscape:connector-curvature="0" class="st3" d="M1140,445.5c0,0,4.2,1.4,8.3,0c1.5-0.5,3.7-2.5,3.2-3.9
		c-0.5-1.4-2.8-1.9-4.9-1.1C1142.5,441.8,1140,445.5,1140,445.5L1140,445.5z"/>
	<path id="path296" inkscape:connector-curvature="0" class="st3" d="M1147,364.9c0,0,4.9-0.5,8.5-3.8c1.3-1.2,2.6-4.2,1.5-5.5
		c-1.1-1.2-3.7-0.7-5.6,1.1C1147.9,360.1,1147,364.9,1147,364.9z"/>
	<path id="path298" inkscape:connector-curvature="0" class="st3" d="M1148.7,381.3c0,0,4.9,0.2,8.1-2.7c1.1-1,2-4,0.7-5.4
		s-3.8-1.3-5.5,0.3C1148.8,376.3,1148.7,381.3,1148.7,381.3z"/>
	<path id="path300" inkscape:connector-curvature="0" class="st3" d="M1147.4,381c0,0-1-4.7-4.6-7.2c-1.3-0.9-4.4-1.3-5.4,0.3
		c-1.1,1.5-0.2,3.9,1.7,5.2C1142.6,381.7,1147.4,381,1147.4,381L1147.4,381z"/>
	<path id="path302" inkscape:connector-curvature="0" class="st3" d="M1139.4,446c0,0,0.8-4-1.5-8.2c-0.8-1.5-3.4-3.8-4.9-3.4
		c-1.4,0.4-1.6,2.6-0.3,4.8C1134.9,443.3,1139.4,446,1139.4,446z"/>
	<path id="path304" inkscape:connector-curvature="0" class="st3" d="M1146.7,412.9c0,0-1.5-2.8-5.3-4.5c-1.4-0.6-4.5-1-5.4-0.2
		c-0.9,0.8,0.1,2.2,2.2,3.1C1142,413,1146.7,412.9,1146.7,412.9L1146.7,412.9z"/>
	<path id="path306" inkscape:connector-curvature="0" class="st3" d="M1148.5,398.2c0,0,3-0.3,5.5-3.1c0.9-1,2.1-3.6,1.5-4.6
		c-0.5-1.1-2.1-0.6-3.4,0.8C1149.6,394,1148.5,398.2,1148.5,398.2L1148.5,398.2z"/>
	<path id="path308" inkscape:connector-curvature="0" class="st3" d="M1143.2,430.4c0,0,0.7-5.1-0.9-8.5c-0.6-1.3-2.5-2.4-3.6-1.1
		c-1.1,1.3-1.3,3.9-0.4,5.7C1139.9,429.9,1143.2,430.4,1143.2,430.4L1143.2,430.4z"/>
	<path id="path310" inkscape:connector-curvature="0" class="st3" d="M1146.3,413.4c0,0,6,0,10.3-2.3c1.5-0.8,3.1-3.2,1.7-4.2
		s-4.5-0.8-6.8,0.4C1147.1,409.6,1146.3,413.4,1146.3,413.4z"/>
	<path id="path312" inkscape:connector-curvature="0" class="st3" d="M1143.7,431.2c0,0,5.7,0,9.4-2.3c1.4-0.8,2.5-3.1,1.1-4.1
		c-1.5-1-4.4-0.8-6.3,0.4C1144.1,427.5,1143.7,431.2,1143.7,431.2L1143.7,431.2z"/>
	<path id="path314" inkscape:connector-curvature="0" class="st3" d="M1094.6,356.8c0,0,4.2,1.4,8.3,0c1.5-0.5,3.7-2.5,3.2-3.9
		c-0.5-1.4-2.8-1.9-4.9-1.1C1097.1,353.1,1094.6,356.8,1094.6,356.8z"/>
	<path id="path316" inkscape:connector-curvature="0" class="st3" d="M1134.8,460.2c0,0,0.2-3.2-2.2-6.6c-0.9-1.2-3.4-3.1-4.6-2.9
		s-1.1,2,0.2,3.8C1130.7,457.9,1134.8,460.2,1134.8,460.2L1134.8,460.2z"/>
	<path id="path318" inkscape:connector-curvature="0" class="st3" d="M1129.9,394.2c0,0-1.2-4.6-3.8-7.3c-1-1-3-1.6-3.5-0.3
		c-0.5,1.3,0.3,3.7,1.7,5.1C1126.8,394.4,1129.9,394.2,1129.9,394.2L1129.9,394.2z"/>
	<path id="path320" inkscape:connector-curvature="0" class="st3" d="M1147.9,399.1c0,0-0.9-3.9-4.7-7.4c-1.3-1.3-4.6-2.9-5.7-2.3
		c-1.1,0.6-0.3,2.7,1.6,4.5C1142.9,397.4,1147.9,399.1,1147.9,399.1z"/>
</g>
<g id="g330">
	<g id="g328">
		<path id="path324" inkscape:connector-curvature="0" class="st5" d="M1115.2,538.2c-1.1-1.9-1.9-4-2.4-6.1
			c4.7,5.2,11,10,18.7,13.7c4.2,2,8.6,3.6,12.9,4.8c0.9-1.2,1.7-2.3,2.3-3.4c1.4-2.2,3.4-4.9,5.8-7.9c-6.6-1.4-12.4-4.3-16.7-8.5
			c5.7,3,12.7,4.5,20.1,4.3c9.1-11,21.7-24.7,29.7-34.4c-8.7-2.1-16-6.9-20-14.1c-0.4-0.7-0.7-1.3-1-2c5.8,6.5,15,10.2,25.3,10.7
			c0.2-0.2,0.3-0.5,0.5-0.7c3.2-4.4,7.9-9.9,12.8-15.9c-1.1-1.7-2.3-3.3-3.8-4.7c1.8,0.9,3.5,2,5,3.2c3.9-4.7,7.8-9.5,11.3-14.1
			c-10.7-1.1-19.9-5.9-24.9-13.9c8.2,5.3,19.5,7.1,31.2,5c1.3-2.1,2.4-4,3.2-5.8c5.4-12,2.7-42.6,0.5-42.1c-5.6,1.5-10-3.6-36.4-2.8
			c-5.9,0.2-11.6,0.9-17.2,2.1c-2.2,7.9-1.4,17.1,2.8,25.8c-2.8-2.8-5.3-6.1-7.4-9.8c-2.5-4.5-4-9.1-4.7-13.7
			c-8.1,2.5-16,5.8-23.6,9.8c-0.3,5.4,1,11.5,4.2,17.2c0.5,0.9,1,1.8,1.6,2.6c-4.4-2.8-8.4-7-11.3-12.3c-0.7-1.2-1.3-2.4-1.8-3.6
			c-5,2.9-9.8,6-14.6,9.2c-4.1,2.8-8.7,6.8-13.5,11.7c0.3,0.2,0.6,0.5,0.9,0.7c1.8,1.3,3.5,2.7,5.1,4.1c-2.9-1.2-5.7-2-8.2-2.5
			c-3.9,4.1-8,8.8-12.2,13.9c2.4,4.7,6.8,10,12.6,15.1c-5.4-2.2-11.3-5.5-17-9.6c-5,6.2-10,12.8-14.9,19.6c4.8,3.2,9.7,5.8,14.3,7.5
			c-4.4,0.6-10.5-0.8-17.2-3.6c-7.2,10-14.2,20.1-20.5,29.6c6.1,3.2,11.8,5.3,16.7,6.1c-3.8,2.3-11,1.4-19.5-1.9
			c-1.1,1.7-2.3,3.4-3.3,5c-22.2,33.5,13.1,55.5,13.1,55.5s39.8,5,52.7,1.6c7.5-2,25.6-18,35.7-30.4
			C1130.3,552.5,1120.2,547.3,1115.2,538.2L1115.2,538.2z"/>
		<path id="path326" inkscape:connector-curvature="0" class="st3" d="M1053.7,582.2c0,0,39.8,5,52.7,1.6c7.5-2,25.6-18,35.7-30.4
			c-11.8-0.9-22-6.2-27-15.2c-1.1-1.9-1.9-4-2.4-6.1c4.7,5.2,11,10,18.7,13.7c4.2,2,8.6,3.6,12.9,4.8c0.9-1.2,1.7-2.3,2.3-3.4
			c1.4-2.2,3.4-4.9,5.8-7.9c-6.6-1.4-12.4-4.3-16.7-8.5c5.7,3,12.7,4.5,20.1,4.3c9.1-11,21.7-24.7,29.7-34.4
			c-8.7-2.1-16-6.9-20-14.1c-0.4-0.7-0.7-1.3-1-2c5.8,6.5,15,10.2,25.3,10.7c0.2-0.2,0.3-0.5,0.5-0.7c3.2-4.4,7.9-9.9,12.8-15.9
			c-1.1-1.7-2.3-3.3-3.8-4.7c1.8,0.9,3.5,2,5,3.2c3.9-4.7,7.8-9.5,11.3-14.1c-10.7-1.1-19.9-5.9-24.9-13.9c8.2,5.3,19.5,7.1,31.2,5
			c1.3-2.1,2.4-4,3.2-5.8c5.1-11.4,2.9-39.4,0.8-41.9c-80.6,54-141.1,116.2-173.1,175.1C1053.5,582.1,1053.7,582.2,1053.7,582.2
			L1053.7,582.2z"/>
	</g>
</g>
<g id="g380">
	<path id="path332" inkscape:connector-curvature="0" class="st6" d="M1149.3,533.8c-18.6,27.6-47.2,43.8-75.5,46
		c-8.5-27.1-4.1-59.6,14.5-87.2c18.6-27.6,47.2-43.8,75.5-46C1172.3,473.8,1167.9,506.3,1149.3,533.8z"/>
	<g id="g378">
		<g id="g336">
			
				<rect id="rect334" x="1046.3" y="515.5" transform="matrix(0.56 -0.8285 0.8285 0.56 64.0206 1152.787)" class="st7" width="141.9" height="1.3"/>
		</g>
		<g id="g340">
			
				<rect id="rect338" x="1137.9" y="459.4" transform="matrix(0.9819 -0.1896 0.1896 0.9819 -68.5697 224.3965)" class="st7" width="1.3" height="22.3"/>
		</g>
		<g id="g344">
			
				<rect id="rect342" x="1123.9" y="474.4" transform="matrix(0.9819 -0.1896 0.1896 0.9819 -72.155 222.0488)" class="st7" width="1.3" height="27.5"/>
		</g>
		<g id="g348">
			
				<rect id="rect346" x="1108.5" y="476.2" transform="matrix(0.9819 -0.1896 0.1896 0.9819 -74.5288 219.3439)" class="st7" width="1.3" height="46"/>
		</g>
		<g id="g352">
			
				<rect id="rect350" x="1095.2" y="497.4" transform="matrix(0.9818 -0.1897 0.1897 0.9818 -78.6912 217.2958)" class="st7" width="1.3" height="44.7"/>
		</g>
		<g id="g356">
			
				<rect id="rect354" x="1083.4" y="537.2" transform="matrix(0.9819 -0.1895 0.1895 0.9819 -84.5143 215.3734)" class="st7" width="1.3" height="24.9"/>
		</g>
		<g id="g360">
			
				<rect id="rect358" x="1142.3" y="476.7" transform="matrix(0.9819 -0.1895 0.1895 0.9819 -69.5503 227.2313)" class="st7" width="22.3" height="1.3"/>
		</g>
		<g id="g364">
			
				<rect id="rect362" x="1128.7" y="495.5" transform="matrix(0.9819 -0.1896 0.1896 0.9819 -73.2728 226.2919)" class="st7" width="34.8" height="1.3"/>
		</g>
		<g id="g368">
			
				<rect id="rect366" x="1114.9" y="514.6" transform="matrix(0.9818 -0.1897 0.1897 0.9818 -77.0989 224.9985)" class="st7" width="43.5" height="1.3"/>
		</g>
		<g id="g372">
			
				<rect id="rect370" x="1101.5" y="534.7" transform="matrix(0.9819 -0.1895 0.1895 0.9819 -81.0769 222.6595)" class="st7" width="44.7" height="1.3"/>
		</g>
		<g id="g376">
			
				<rect id="rect374" x="1087.9" y="555.4" transform="matrix(0.9819 -0.1894 0.1894 0.9819 -85.2659 219.7517)" class="st7" width="38.4" height="1.3"/>
		</g>
	</g>
</g>
<g id="g430">
	<path id="path382" inkscape:connector-curvature="0" class="st5" d="M1154.2,584.6c-30.6,13.1-63.3,11.3-88.3-2.2
		c7.5-27.4,28.8-52.4,59.4-65.5s63.3-11.3,88.3,2.2C1206,546.6,1184.8,571.5,1154.2,584.6z"/>
	<g id="g428">
		<g id="g386">
			
				<rect id="rect384" x="1065.9" y="551.9" transform="matrix(0.9192 -0.3938 0.3938 0.9192 -125.73 492.3332)" class="st7" width="141.9" height="1.3"/>
		</g>
		<g id="g390">
			
				<rect id="rect388" x="1168.1" y="524.9" transform="matrix(0.3714 -0.9285 0.9285 0.3714 253.3716 1425.2369)" class="st7" width="22.3" height="1.3"/>
		</g>
		<g id="g394">
			
				<rect id="rect392" x="1144.2" y="532.1" transform="matrix(0.372 -0.9282 0.9282 0.372 232.677 1409.3219)" class="st7" width="27.5" height="1.3"/>
		</g>
		<g id="g398">
			
				<rect id="rect396" x="1116.2" y="532.9" transform="matrix(0.3714 -0.9285 0.9285 0.3714 220.6741 1393.0762)" class="st7" width="46" height="1.3"/>
		</g>
		<g id="g402">
			
				<rect id="rect400" x="1094.3" y="543.2" transform="matrix(0.3727 -0.9279 0.9279 0.3727 195.7888 1377.2755)" class="st7" width="44.7" height="1.3"/>
		</g>
		<g id="g406">
			
				<rect id="rect404" x="1078.3" y="561.8" transform="matrix(0.3721 -0.9282 0.9282 0.3721 162.8292 1365.521)" class="st7" width="24.9" height="1.3"/>
		</g>
		<g id="g410">
			
				<rect id="rect408" x="1187.7" y="528.2" transform="matrix(0.3718 -0.9283 0.9283 0.3718 245.8409 1441.925)" class="st7" width="1.3" height="22.3"/>
		</g>
		<g id="g414">
			
				<rect id="rect412" x="1171.2" y="533.8" transform="matrix(0.3718 -0.9283 0.9283 0.3718 224.5143 1434.0548)" class="st7" width="1.3" height="34.8"/>
		</g>
		<g id="g418">
			
				<rect id="rect416" x="1153.1" y="540.5" transform="matrix(0.3717 -0.9284 0.9284 0.3717 202.9659 1424.3209)" class="st7" width="1.3" height="43.5"/>
		</g>
		<g id="g422">
			
				<rect id="rect420" x="1131.4" y="549.7" transform="matrix(0.3718 -0.9283 0.9283 0.3718 180.0403 1410.2196)" class="st7" width="1.3" height="44.7"/>
		</g>
		<g id="g426">
			
				<rect id="rect424" x="1106.2" y="561.1" transform="matrix(0.3717 -0.9284 0.9284 0.3717 156.7329 1392.0903)" class="st7" width="1.3" height="38.4"/>
		</g>
	</g>
</g>
<g id="g668">
	<g id="g548">
		<g id="g492">
			<g id="g460">
				<g id="g458" class="st8">
					<g id="g434">
						<path id="path432" inkscape:connector-curvature="0" class="st9" d="M965.4,596.2c-0.2-5.2-0.5-12.1-0.7-17.3
							c0.1,3.6,0.5,13.2,0.7,16.9C965.3,595.9,965.3,596,965.4,596.2z"/>
					</g>
					<g id="g438">
						<path id="path436" inkscape:connector-curvature="0" class="st10" d="M1108.1,571.6c0.2,6.4,0.5,12.8,0.7,19.1
							c0.2,4.9-6.2,10-19.4,14.5c-28.6,9.6-78.1,12.2-110.8,5.8c-17.5-3.4-26.6-8.7-26.8-14.3l-0.7-19.1c0.2,5.7,9.3,11,26.8,14.3
							c32.6,6.3,82.2,3.7,110.8-5.8C1101.9,581.6,1108.3,576.5,1108.1,571.6z"/>
					</g>
					<g id="g442">
						<path id="path440" inkscape:connector-curvature="0" class="st9" d="M1081.3,557.3c32.6,6.3,35.9,19.2,7.4,28.8
							c-28.6,9.6-78.1,12.2-110.8,5.8c-32.6-6.3-35.9-19.2-7.4-28.8C999.1,553.5,1048.7,550.9,1081.3,557.3L1081.3,557.3z
							 M986.8,588.9c27,5.3,68.1,3.1,91.7-4.8c23.6-7.9,20.9-18.6-6.1-23.8c-27-5.3-68.1-3.1-91.7,4.8
							C957.1,573,959.8,583.7,986.8,588.9z"/>
					</g>
					<path id="path444" inkscape:connector-curvature="0" class="st10" d="M1072.5,560.2c27,5.3,29.8,15.9,6.1,23.8
						c-23.7,7.9-64.7,10.1-91.7,4.8c-27-5.3-29.7-15.9-6.1-23.9C1004.4,557.1,1045.4,555,1072.5,560.2z"/>
					<path id="path446" inkscape:connector-curvature="0" class="st11" d="M980.7,567.4c23.7-7.9,64.7-10.1,91.7-4.8
						c13.4,2.6,20.9,6.6,22,10.9c1.3-5.2-6.1-10.2-22-13.2c-27-5.3-68.1-3.1-91.7,4.8c-11.9,4-17.1,8.7-15.9,13
						C965.7,574.4,971,570.7,980.7,567.4z"/>
					<g id="g450">
						<path id="path448" inkscape:connector-curvature="0" class="st11" d="M1046.4,578.6c2,1.8,0.5,4-4.9,5.8
							c-6.2,2.1-15.7,3-24.2,2.7c-3.1-0.1-6-0.5-8.5-0.9l-1.5-0.3l-0.5,0.2l-2,0.7l-1.2-0.2l-6.1-1.2l2.5-0.8l-4.4-0.8l-0.5,0.2
							l-2,0.7l-1.2-0.2l-6.1-1.2l2.5-0.8l-4.4-0.8l5.8-2l0.5-0.2l3.2,0.6l1.2,0.2l17.8-6l6.4-2.1l15.3-5.1l-4.4-0.8l5.8-2l0.5-0.2
							l3.2,0.6l1.2,0.2l2-0.7l0.5-0.2l7.3,1.4l-2.6,0.8l3.2,0.6l1.2,0.2l2-0.7l0.5-0.2l7.3,1.4l-2.6,0.8c8.8,1.7,9.7,5.2,2,7.8
							C1057.6,577.5,1052,578.4,1046.4,578.6L1046.4,578.6z M1019.8,584.6c5,0.3,10.8-0.3,14.5-1.5c4.9-1.7,4.3-3.9-1.3-5l-13.1-2.5
							l-0.5,0.2l-17.3,5.8l13.1,2.5C1016.6,584.3,1018.2,584.5,1019.8,584.6L1019.8,584.6z M1041,568.4l-14.8,4.9l11.6,2.3
							c1.2,0.2,2.5,0.4,3.8,0.5c4.3,0.2,9.3-0.2,12.5-1.3c4.2-1.4,3.7-3.3-1.1-4.3l-11.6-2.3L1041,568.4z"/>
					</g>
					<g id="g454">
						<path id="path452" inkscape:connector-curvature="0" class="st12" d="M1046.4,576.2c2,1.8,0.5,4-4.9,5.8
							c-6.2,2.1-15.7,3-24.2,2.7c-3.1-0.1-6-0.4-8.5-0.9l-1.5-0.3l-0.5,0.2l-2,0.7l-1.2-0.2l-6.1-1.2l2.5-0.8l-4.4-0.8l-0.5,0.2
							l-2,0.7l-1.2-0.2l-6.1-1.2l2.5-0.9l-4.4-0.8l5.8-2l0.5-0.2l3.2,0.6l1.2,0.2l17.8-6l6.4-2.1l15.3-5.1l-4.4-0.9l5.8-2l0.5-0.2
							l3.2,0.6l1.2,0.2l2-0.7l0.5-0.2l7.3,1.4l-2.6,0.8l3.2,0.6l1.2,0.2l2-0.7l0.5-0.2l7.3,1.4l-2.6,0.8c8.8,1.7,9.7,5.2,2,7.8
							C1057.6,575.2,1052,576,1046.4,576.2L1046.4,576.2z M1019.8,582.2c5,0.3,10.8-0.3,14.5-1.5c4.9-1.6,4.3-3.9-1.3-5l-13.1-2.5
							l-0.5,0.2l-17.3,5.8l13.1,2.5C1016.6,581.9,1018.2,582.1,1019.8,582.2L1019.8,582.2z M1041,566.1l-14.8,4.9l11.6,2.3
							c1.2,0.2,2.5,0.4,3.8,0.5c4.3,0.2,9.3-0.2,12.5-1.3c4.2-1.4,3.7-3.3-1.1-4.3l-11.6-2.3L1041,566.1z"/>
					</g>
					<path id="path456" inkscape:connector-curvature="0" class="st11" d="M958.6,585.9v18.7c4.5,2.5,11.2,4.7,20,6.4
						c8.8,1.7,18.7,2.8,29.2,3.2v-19.1c-10.7-0.4-20.9-1.5-29.9-3.2C969.6,590.3,963.1,588.2,958.6,585.9L958.6,585.9z"/>
				</g>
			</g>
			<g id="g490">
				<g id="g488" class="st8">
					<g id="g464">
						<path id="path462" inkscape:connector-curvature="0" class="st9" d="M972.6,573.6c-0.2-5.2-0.4-12.1-0.7-17.3
							c0.1,3.6,0.5,13.2,0.7,16.9C972.6,573.4,972.6,573.5,972.6,573.6z"/>
					</g>
					<g id="g468">
						<path id="path466" inkscape:connector-curvature="0" class="st10" d="M1115.3,549.1c0.3,6.4,0.5,12.8,0.7,19.1
							c0.2,4.9-6.2,10-19.4,14.5c-28.6,9.6-78.1,12.2-110.8,5.8c-17.5-3.4-26.6-8.7-26.8-14.3l-0.7-19.1c0.2,5.7,9.3,10.9,26.8,14.3
							c32.6,6.3,82.2,3.7,110.8-5.8C1109.2,559.1,1115.5,554,1115.3,549.1z"/>
					</g>
					<g id="g472">
						<path id="path470" inkscape:connector-curvature="0" class="st9" d="M1088.6,534.7c32.6,6.3,35.9,19.2,7.4,28.8
							s-78.1,12.2-110.8,5.8c-32.6-6.3-35.9-19.2-7.4-28.8C1006.4,531,1055.9,528.4,1088.6,534.7L1088.6,534.7z M994.1,566.4
							c27,5.3,68.1,3.1,91.7-4.8c23.7-7.9,20.9-18.6-6.1-23.8c-27-5.3-68.1-3.1-91.7,4.8C964.3,550.5,967,561.1,994.1,566.4z"/>
					</g>
					<path id="path474" inkscape:connector-curvature="0" class="st10" d="M1079.7,537.7c27,5.3,29.8,15.9,6.1,23.8
						s-64.7,10.1-91.7,4.8c-27-5.3-29.8-15.9-6.1-23.8S1052.7,532.5,1079.7,537.7z"/>
					<path id="path476" inkscape:connector-curvature="0" class="st11" d="M988,544.9c23.7-7.9,64.7-10.1,91.7-4.8
						c13.4,2.6,20.9,6.6,22,10.9c1.3-5.2-6.1-10.2-22-13.2c-27-5.3-68.1-3.1-91.7,4.8c-11.9,4-17.1,8.7-15.9,13
						C973,551.9,978.2,548.2,988,544.9z"/>
					<g id="g480">
						<path id="path478" inkscape:connector-curvature="0" class="st11" d="M1053.6,556.1c2,1.8,0.5,4-4.9,5.8
							c-6.2,2.1-15.8,3-24.2,2.7c-3.1-0.1-6-0.5-8.5-0.9l-1.5-0.3l-0.5,0.2l-2,0.7l-1.2-0.2l-6.1-1.2l2.5-0.8l-4.4-0.8l-0.5,0.2
							l-2,0.7l-1.2-0.2l-6.1-1.2l2.6-0.8l-4.4-0.8l5.8-2l0.5-0.2l3.2,0.6l1.2,0.2l17.8-6l6.4-2.1l15.3-5.1l-4.4-0.8l5.8-2l0.5-0.2
							l3.2,0.6l1.2,0.2l2-0.7l0.5-0.2l7.3,1.4l-2.6,0.8l3.2,0.6l1.2,0.2l2-0.7l0.5-0.2l7.3,1.4l-2.6,0.8c8.8,1.7,9.7,5.2,2,7.8
							C1064.8,555,1059.3,555.8,1053.6,556.1L1053.6,556.1z M1027,562c5,0.3,10.8-0.3,14.5-1.5c4.9-1.7,4.3-3.9-1.3-5l-13.1-2.5
							l-0.5,0.2l-17.3,5.8l13.1,2.5C1023.8,561.8,1025.4,562,1027,562L1027,562z M1048.3,545.9l-14.8,4.9l11.6,2.3
							c1.2,0.2,2.5,0.4,3.8,0.5c4.3,0.2,9.3-0.2,12.5-1.3c4.2-1.4,3.7-3.3-1.1-4.3l-11.6-2.3L1048.3,545.9z"/>
					</g>
					<g id="g484">
						<path id="path482" inkscape:connector-curvature="0" class="st12" d="M1053.6,553.7c2,1.8,0.5,4-4.9,5.8
							c-6.2,2.1-15.8,3-24.2,2.7c-3.1-0.1-6-0.4-8.5-0.9l-1.5-0.3l-0.5,0.2l-2,0.7l-1.2-0.2l-6.1-1.2l2.5-0.8l-4.4-0.8l-0.5,0.2
							l-2,0.7l-1.2-0.2l-6.1-1.2l2.6-0.8l-4.4-0.8l5.8-2l0.5-0.2l3.2,0.6l1.2,0.2l17.8-6l6.4-2.1l15.3-5.1l-4.4-0.9l5.8-2l0.5-0.2
							l3.2,0.6l1.2,0.2l2-0.7l0.5-0.2l7.3,1.4l-2.6,0.8l3.2,0.6l1.2,0.2l2-0.7l0.5-0.2l7.3,1.4l-2.6,0.8c8.8,1.7,9.7,5.2,2,7.8
							C1064.8,552.6,1059.3,553.5,1053.6,553.7L1053.6,553.7z M1027,559.7c5,0.3,10.8-0.3,14.5-1.5c4.9-1.7,4.3-3.9-1.3-5l-13.1-2.5
							l-0.5,0.2l-17.3,5.8l13.1,2.5C1023.8,559.4,1025.4,559.6,1027,559.7L1027,559.7z M1048.3,543.5l-14.8,4.9l11.6,2.3
							c1.2,0.2,2.5,0.4,3.8,0.5c4.3,0.2,9.3-0.2,12.5-1.3c4.2-1.4,3.7-3.3-1.1-4.3l-11.6-2.3L1048.3,543.5z"/>
					</g>
					<path id="path486" inkscape:connector-curvature="0" class="st11" d="M965.9,563.3v18.7c4.5,2.5,11.2,4.7,20,6.4
						c8.8,1.7,18.7,2.8,29.2,3.2v-19.1c-10.7-0.4-20.9-1.5-29.9-3.2C976.8,567.7,970.4,565.7,965.9,563.3L965.9,563.3z"/>
				</g>
			</g>
		</g>
		<g id="g546">
			<g id="g522">
				<g id="g520" class="st8">
					<g id="g496">
						<path id="path494" inkscape:connector-curvature="0" class="st9" d="M965.4,547.2c-0.2-5.2-0.5-12.1-0.7-17.3
							c0.1,3.6,0.5,13.2,0.7,16.9C965.3,547,965.3,547.1,965.4,547.2z"/>
					</g>
					<g id="g500">
						<path id="path498" inkscape:connector-curvature="0" class="st10" d="M1108.1,522.7c0.2,6.4,0.5,12.8,0.7,19.1
							c0.2,4.9-6.2,10-19.4,14.5c-28.6,9.6-78.1,12.2-110.8,5.8c-17.5-3.4-26.6-8.7-26.8-14.3l-0.7-19.1c0.2,5.7,9.3,10.9,26.8,14.3
							c32.6,6.3,82.2,3.7,110.8-5.8C1101.9,532.7,1108.3,527.6,1108.1,522.7z"/>
					</g>
					<g id="g504">
						<path id="path502" inkscape:connector-curvature="0" class="st9" d="M1081.3,508.3c32.6,6.3,35.9,19.2,7.4,28.8
							s-78.1,12.2-110.8,5.8c-32.6-6.3-35.9-19.2-7.4-28.8S1048.7,502,1081.3,508.3z M986.8,540c27,5.3,68.1,3.1,91.7-4.8
							c23.6-7.9,20.9-18.6-6.1-23.9c-27-5.3-68.1-3.1-91.7,4.8C957.1,524.1,959.8,534.7,986.8,540z"/>
					</g>
					<path id="path506" inkscape:connector-curvature="0" class="st10" d="M1072.5,511.3c27,5.3,29.8,15.9,6.1,23.9
						c-23.7,7.9-64.7,10.1-91.7,4.8c-27-5.3-29.7-15.9-6.1-23.8C1004.4,508.2,1045.4,506.1,1072.5,511.3z"/>
					<path id="path508" inkscape:connector-curvature="0" class="st11" d="M980.7,518.5c23.7-7.9,64.7-10.1,91.7-4.8
						c13.4,2.6,20.9,6.6,22,10.9c1.3-5.2-6.1-10.2-22-13.3c-27-5.3-68.1-3.1-91.7,4.8c-11.9,4-17.1,8.7-15.9,13
						C965.7,525.5,971,521.8,980.7,518.5z"/>
					<g id="g512">
						<path id="path510" inkscape:connector-curvature="0" class="st11" d="M1046.4,529.7c2,1.8,0.5,4-4.9,5.8
							c-6.2,2.1-15.7,3-24.2,2.7c-3.1-0.1-6-0.5-8.5-1l-1.5-0.3l-0.5,0.2l-2,0.7l-1.2-0.2l-6.1-1.2l2.5-0.8l-4.4-0.8l-0.5,0.2
							l-2,0.7l-1.2-0.2l-6.1-1.2l2.5-0.8l-4.4-0.8l5.8-2l0.5-0.2l3.2,0.6l1.2,0.2l17.8-6l6.4-2.1l15.3-5.1l-4.4-0.8l5.8-2l0.5-0.2
							l3.2,0.6l1.2,0.2l2-0.7l0.5-0.2l7.3,1.4l-2.6,0.8l3.2,0.6l1.2,0.2l2-0.7l0.5-0.2l7.3,1.4l-2.6,0.8c8.8,1.7,9.7,5.2,2,7.8
							C1057.6,528.6,1052,529.4,1046.4,529.7L1046.4,529.7z M1019.8,535.6c5,0.3,10.8-0.3,14.5-1.5c4.9-1.7,4.3-3.9-1.3-5l-13.1-2.5
							l-0.5,0.2l-17.3,5.8l13.1,2.5C1016.6,535.4,1018.2,535.6,1019.8,535.6L1019.8,535.6z M1041,519.5l-14.8,4.9l11.6,2.3
							c1.2,0.2,2.5,0.4,3.8,0.5c4.3,0.2,9.3-0.2,12.5-1.3c4.2-1.4,3.7-3.3-1.1-4.3l-11.6-2.3L1041,519.5z"/>
					</g>
					<g id="g516">
						<path id="path514" inkscape:connector-curvature="0" class="st12" d="M1046.4,527.3c2,1.8,0.5,4-4.9,5.8
							c-6.2,2.1-15.7,3-24.2,2.7c-3.1-0.1-6-0.5-8.5-0.9l-1.5-0.3l-0.5,0.2l-2,0.7l-1.2-0.2l-6.1-1.2l2.5-0.8l-4.4-0.8l-0.5,0.2
							l-2,0.7l-1.2-0.2l-6.1-1.2l2.5-0.8l-4.4-0.8l5.8-2l0.5-0.2l3.2,0.6l1.2,0.2l17.8-6l6.4-2.1l15.3-5.1l-4.4-0.8l5.8-2l0.5-0.2
							l3.2,0.6l1.2,0.2l2-0.7l0.5-0.2l7.3,1.4l-2.6,0.9l3.2,0.6l1.2,0.2l2-0.7l0.5-0.2l7.3,1.4l-2.6,0.8c8.8,1.7,9.7,5.2,2,7.8
							C1057.6,526.2,1052,527.1,1046.4,527.3L1046.4,527.3z M1019.8,533.3c5,0.3,10.8-0.3,14.5-1.5c4.9-1.7,4.3-3.9-1.3-5l-13.1-2.5
							l-0.5,0.2l-17.3,5.8l13.1,2.5C1016.6,533,1018.2,533.2,1019.8,533.3L1019.8,533.3z M1041,517.1l-14.8,4.9l11.6,2.3
							c1.2,0.2,2.5,0.4,3.8,0.5c4.3,0.2,9.3-0.2,12.5-1.3c4.2-1.4,3.7-3.3-1.1-4.3l-11.6-2.3L1041,517.1z"/>
					</g>
					<path id="path518" inkscape:connector-curvature="0" class="st11" d="M958.6,536.9v18.7c4.5,2.5,11.2,4.7,20,6.4
						c8.8,1.7,18.7,2.8,29.2,3.2v-19.1c-10.7-0.4-20.9-1.5-29.9-3.2C969.6,541.3,963.1,539.3,958.6,536.9z"/>
				</g>
			</g>
			<g id="g544">
				<g id="g542" class="st8">
					<g id="g526">
						<path id="path524" inkscape:connector-curvature="0" class="st9" d="M972.6,524.7c-0.2-5.2-0.4-12.1-0.7-17.3
							c0.1,3.6,0.5,13.2,0.7,16.9C972.6,524.4,972.6,524.6,972.6,524.7z"/>
					</g>
					<g id="g530">
						<path id="path528" inkscape:connector-curvature="0" class="st10" d="M1115.3,500.2c0.3,6.4,0.5,12.8,0.7,19.1
							c0.2,4.9-6.2,10-19.4,14.5c-28.6,9.6-78.1,12.2-110.8,5.8c-17.5-3.4-26.6-8.7-26.8-14.3l-0.7-19.1c0.2,5.7,9.3,10.9,26.8,14.3
							c32.6,6.3,82.2,3.7,110.8-5.8C1109.2,510.2,1115.5,505,1115.3,500.2z"/>
					</g>
					<g id="g534">
						<path id="path532" inkscape:connector-curvature="0" class="st9" d="M1088.6,485.8c32.6,6.3,35.9,19.2,7.4,28.8
							s-78.1,12.2-110.8,5.8c-32.6-6.3-35.9-19.2-7.4-28.8C1006.4,482.1,1055.9,479.5,1088.6,485.8z M994.1,517.5
							c27,5.3,68.1,3.1,91.7-4.8c23.7-7.9,20.9-18.6-6.1-23.8c-27-5.3-68.1-3.1-91.7,4.8C964.3,501.5,967,512.2,994.1,517.5z"/>
					</g>
					<path id="path536" inkscape:connector-curvature="0" class="st10" d="M1079.7,488.8c27,5.3,29.8,15.9,6.1,23.8
						s-64.7,10.1-91.7,4.8c-27-5.3-29.8-15.9-6.1-23.8S1052.7,483.5,1079.7,488.8z"/>
					<path id="path538" inkscape:connector-curvature="0" class="st11" d="M988,496c23.7-7.9,64.7-10.1,91.7-4.8
						c13.4,2.6,20.9,6.6,22,10.9c1.3-5.2-6.1-10.2-22-13.3c-27-5.3-68.1-3.1-91.7,4.8c-11.9,4-17.1,8.7-15.9,13
						C973,503,978.2,499.2,988,496z"/>
					<path id="path540" inkscape:connector-curvature="0" class="st11" d="M965.9,514.4v18.7c4.5,2.5,11.2,4.7,20,6.4
						c8.8,1.7,18.7,2.8,29.2,3.2v-19.1c-10.7-0.4-20.9-1.5-29.9-3.2C976.8,518.8,970.4,516.7,965.9,514.4L965.9,514.4z"/>
				</g>
			</g>
		</g>
	</g>
	<g id="g666">
		<g id="g610">
			<g id="g578">
				<g id="g576" class="st8">
					<g id="g552">
						<path id="path550" inkscape:connector-curvature="0" class="st9" d="M965.4,500.3c-0.2-5.2-0.5-12.1-0.7-17.3
							c0.1,3.6,0.5,13.2,0.7,16.9C965.3,500,965.3,500.2,965.4,500.3z"/>
					</g>
					<g id="g556">
						<path id="path554" inkscape:connector-curvature="0" class="st10" d="M1108.1,475.7c0.2,6.4,0.5,12.8,0.7,19.1
							c0.2,4.9-6.2,10-19.4,14.5c-28.6,9.6-78.1,12.2-110.8,5.8c-17.5-3.4-26.6-8.7-26.8-14.3l-0.7-19.1c0.2,5.7,9.3,11,26.8,14.3
							c32.6,6.3,82.2,3.7,110.8-5.8C1101.9,485.8,1108.3,480.6,1108.1,475.7z"/>
					</g>
					<g id="g560">
						<path id="path558" inkscape:connector-curvature="0" class="st9" d="M1081.3,461.4c32.6,6.3,35.9,19.2,7.4,28.8
							c-28.6,9.6-78.1,12.2-110.8,5.8c-32.6-6.3-35.9-19.2-7.4-28.8C999.1,457.7,1048.7,455,1081.3,461.4L1081.3,461.4z M986.8,493
							c27,5.3,68.1,3.1,91.7-4.8c23.6-7.9,20.9-18.6-6.1-23.8c-27-5.3-68.1-3.1-91.7,4.8C957.1,477.1,959.8,487.8,986.8,493z"/>
					</g>
					<path id="path562" inkscape:connector-curvature="0" class="st10" d="M1072.5,464.4c27,5.3,29.8,15.9,6.1,23.8
						c-23.7,7.9-64.7,10.1-91.7,4.8c-27-5.3-29.7-15.9-6.1-23.8C1004.4,461.3,1045.4,459.1,1072.5,464.4z"/>
					<path id="path564" inkscape:connector-curvature="0" class="st11" d="M980.7,471.6c23.7-7.9,64.7-10.1,91.7-4.8
						c13.4,2.6,20.9,6.6,22,10.9c1.3-5.2-6.1-10.2-22-13.2c-27-5.3-68.1-3.1-91.7,4.8c-11.9,4-17.1,8.7-15.9,13
						C965.7,478.6,971,474.8,980.7,471.6z"/>
					<g id="g568">
						<path id="path566" inkscape:connector-curvature="0" class="st11" d="M1046.4,482.8c2,1.8,0.5,4-4.9,5.8
							c-6.2,2.1-15.7,3-24.2,2.7c-3.1-0.1-6-0.5-8.5-0.9l-1.5-0.3l-0.5,0.2l-2,0.7l-1.2-0.2l-6.1-1.2l2.5-0.8l-4.4-0.8l-0.5,0.2
							l-2,0.7l-1.2-0.2l-6.1-1.2l2.5-0.8l-4.4-0.8l5.8-2l0.5-0.2l3.2,0.6l1.2,0.2l17.8-6l6.4-2.1l15.3-5.1l-4.4-0.8l5.8-2l0.5-0.2
							l3.2,0.6l1.2,0.2l2-0.7l0.5-0.2l7.3,1.4l-2.6,0.8l3.2,0.6l1.2,0.2l2-0.7l0.5-0.2l7.3,1.4l-2.6,0.8c8.8,1.7,9.7,5.2,2,7.8
							C1057.6,481.7,1052,482.5,1046.4,482.8L1046.4,482.8z M1019.8,488.7c5,0.3,10.8-0.3,14.5-1.5c4.9-1.7,4.3-3.9-1.3-5l-13.1-2.5
							l-0.5,0.2l-17.3,5.8l13.1,2.5C1016.6,488.4,1018.2,488.6,1019.8,488.7L1019.8,488.7z M1041,472.6l-14.8,4.9l11.6,2.3
							c1.2,0.2,2.5,0.4,3.8,0.5c4.3,0.2,9.3-0.2,12.5-1.3c4.2-1.4,3.7-3.3-1.1-4.3l-11.6-2.3L1041,472.6z"/>
					</g>
					<g id="g572">
						<path id="path570" inkscape:connector-curvature="0" class="st12" d="M1046.4,480.4c2,1.8,0.5,4-4.9,5.8
							c-6.2,2.1-15.7,3-24.2,2.7c-3.1-0.1-6-0.5-8.5-0.9l-1.5-0.3l-0.5,0.2l-2,0.7l-1.2-0.2l-6.1-1.2l2.5-0.8l-4.4-0.8l-0.5,0.2
							l-2,0.7L992,486l-6.1-1.2l2.5-0.8l-4.4-0.8l5.8-2l0.5-0.2l3.2,0.6l1.2,0.2l17.8-6l6.4-2.1l15.3-5.1l-4.4-0.9l5.8-2l0.5-0.2
							l3.2,0.6l1.2,0.2l2-0.7l0.5-0.2l7.3,1.4l-2.6,0.8l3.2,0.6l1.2,0.2l2-0.7l0.5-0.2l7.3,1.4l-2.6,0.8c8.8,1.7,9.7,5.2,2,7.8
							C1057.6,479.3,1052,480.1,1046.4,480.4L1046.4,480.4z M1019.8,486.3c5,0.3,10.8-0.3,14.5-1.5c4.9-1.6,4.3-3.9-1.3-5l-13.1-2.5
							l-0.5,0.2l-17.3,5.8l13.1,2.5C1016.6,486.1,1018.2,486.2,1019.8,486.3L1019.8,486.3z M1041,470.2l-14.8,4.9l11.6,2.3
							c1.2,0.2,2.5,0.4,3.8,0.5c4.3,0.2,9.3-0.2,12.5-1.3c4.2-1.4,3.7-3.3-1.1-4.3l-11.6-2.3L1041,470.2z"/>
					</g>
					<path id="path574" inkscape:connector-curvature="0" class="st11" d="M958.6,490v18.7c4.5,2.5,11.2,4.7,20,6.4
						c8.8,1.7,18.7,2.8,29.2,3.2v-19.1c-10.7-0.4-20.9-1.5-29.9-3.2C969.6,494.4,963.1,492.3,958.6,490L958.6,490z"/>
				</g>
			</g>
			<g id="g608">
				<g id="g606" class="st8">
					<g id="g582">
						<path id="path580" inkscape:connector-curvature="0" class="st9" d="M972.6,477.8c-0.2-5.2-0.4-12.1-0.7-17.3
							c0.1,3.6,0.5,13.2,0.7,16.9C972.6,477.5,972.6,477.6,972.6,477.8z"/>
					</g>
					<g id="g586">
						<path id="path584" inkscape:connector-curvature="0" class="st10" d="M1115.3,453.2c0.3,6.4,0.5,12.8,0.7,19.1
							c0.2,4.9-6.2,10-19.4,14.5c-28.6,9.6-78.1,12.2-110.8,5.8c-17.5-3.4-26.6-8.7-26.8-14.3l-0.7-19.1c0.2,5.7,9.3,10.9,26.8,14.3
							c32.6,6.3,82.2,3.7,110.8-5.8C1109.2,463.2,1115.5,458.1,1115.3,453.2z"/>
					</g>
					<g id="g590">
						<path id="path588" inkscape:connector-curvature="0" class="st9" d="M1088.6,438.9c32.6,6.3,35.9,19.2,7.4,28.8
							s-78.1,12.2-110.8,5.8c-32.6-6.3-35.9-19.2-7.4-28.8C1006.4,435.1,1055.9,432.5,1088.6,438.9z M994.1,470.5
							c27,5.3,68.1,3.1,91.7-4.8c23.7-7.9,20.9-18.6-6.1-23.8c-27-5.3-68.1-3.1-91.7,4.8C964.3,454.6,967,465.3,994.1,470.5z"/>
					</g>
					<path id="path592" inkscape:connector-curvature="0" class="st10" d="M1079.7,441.8c27,5.3,29.8,15.9,6.1,23.8
						s-64.7,10.1-91.7,4.8c-27-5.3-29.8-15.9-6.1-23.8S1052.7,436.6,1079.7,441.8z"/>
					<path id="path594" inkscape:connector-curvature="0" class="st11" d="M988,449.1c23.7-7.9,64.7-10.1,91.7-4.8
						c13.4,2.6,20.9,6.6,22,10.9c1.3-5.2-6.1-10.2-22-13.2c-27-5.3-68.1-3.1-91.7,4.8c-11.9,4-17.1,8.7-15.9,13
						C973,456,978.2,452.3,988,449.1z"/>
					<g id="g598">
						<path id="path596" inkscape:connector-curvature="0" class="st11" d="M1053.6,460.2c2,1.8,0.5,4-4.9,5.8
							c-6.2,2.1-15.8,3-24.2,2.7c-3.1-0.1-6-0.5-8.5-0.9l-1.5-0.3l-0.5,0.2l-2,0.7l-1.2-0.2l-6.1-1.2l2.5-0.8l-4.4-0.8l-0.5,0.2
							l-2,0.7l-1.2-0.2l-6.1-1.2l2.6-0.8l-4.4-0.8l5.8-2l0.5-0.2l3.2,0.6l1.2,0.2l17.8-6l6.4-2.1l15.3-5.1l-4.4-0.8l5.8-2l0.5-0.2
							l3.2,0.6l1.2,0.2l2-0.7l0.5-0.2l7.3,1.4l-2.6,0.8l3.2,0.6l1.2,0.2l2-0.7l0.5-0.2l7.3,1.4l-2.6,0.8c8.8,1.7,9.7,5.2,2,7.8
							C1064.8,459.1,1059.3,460,1053.6,460.2L1053.6,460.2z M1027,466.2c5,0.3,10.8-0.3,14.5-1.5c4.9-1.7,4.3-3.9-1.3-5l-13.1-2.5
							l-0.5,0.2l-17.3,5.8l13.1,2.5C1023.8,465.9,1025.4,466.1,1027,466.2L1027,466.2z M1048.3,450.1l-14.8,4.9l11.6,2.3
							c1.2,0.2,2.5,0.4,3.8,0.5c4.3,0.2,9.3-0.2,12.5-1.3c4.2-1.4,3.7-3.3-1.1-4.3l-11.6-2.3L1048.3,450.1z"/>
					</g>
					<g id="g602">
						<path id="path600" inkscape:connector-curvature="0" class="st12" d="M1053.6,457.8c2,1.8,0.5,4-4.9,5.8
							c-6.2,2.1-15.8,3-24.2,2.7c-3.1-0.1-6-0.4-8.5-0.9l-1.5-0.3l-0.5,0.2l-2,0.7l-1.2-0.2l-6.1-1.2l2.5-0.8l-4.4-0.8l-0.5,0.2
							l-2,0.7l-1.2-0.2l-6.1-1.2l2.6-0.8l-4.4-0.8l5.8-2l0.5-0.2l3.2,0.6l1.2,0.2l17.8-6l6.4-2.1l15.3-5.1l-4.4-0.8l5.8-2l0.5-0.2
							l3.2,0.6l1.2,0.2l2-0.7l0.5-0.2l7.3,1.4l-2.6,0.8l3.2,0.6l1.2,0.2l2-0.7l0.5-0.2l7.3,1.4l-2.6,0.8c8.8,1.7,9.7,5.2,2,7.8
							C1064.8,456.8,1059.3,457.6,1053.6,457.8L1053.6,457.8z M1027,463.8c5,0.3,10.8-0.3,14.5-1.5c4.9-1.7,4.3-3.9-1.3-5l-13.1-2.5
							l-0.5,0.2l-17.3,5.8l13.1,2.5C1023.8,463.5,1025.4,463.7,1027,463.8L1027,463.8z M1048.3,447.7l-14.8,4.9l11.6,2.3
							c1.2,0.2,2.5,0.4,3.8,0.5c4.3,0.2,9.3-0.2,12.5-1.3c4.2-1.4,3.7-3.3-1.1-4.3l-11.6-2.3L1048.3,447.7z"/>
					</g>
					<path id="path604" inkscape:connector-curvature="0" class="st11" d="M965.9,467.5v18.8c4.5,2.5,11.2,4.7,20,6.4
						c8.8,1.7,18.7,2.8,29.2,3.2v-19.1c-10.7-0.4-20.9-1.5-29.9-3.2C976.8,471.9,970.4,469.8,965.9,467.5z"/>
				</g>
			</g>
		</g>
		<g id="g664">
			<g id="g640">
				<g id="g638" class="st8">
					<g id="g614">
						<path id="path612" inkscape:connector-curvature="0" class="st9" d="M965.4,451.4c-0.2-5.2-0.5-12.1-0.7-17.3
							c0.1,3.6,0.5,13.2,0.7,16.9C965.3,451.1,965.3,451.2,965.4,451.4z"/>
					</g>
					<g id="g618">
						<path id="path616" inkscape:connector-curvature="0" class="st10" d="M1108.1,426.8c0.2,6.4,0.5,12.8,0.7,19.1
							c0.2,4.9-6.2,10-19.4,14.5c-28.6,9.6-78.1,12.2-110.8,5.8c-17.5-3.4-26.6-8.7-26.8-14.3l-0.7-19.1c0.2,5.7,9.3,10.9,26.8,14.3
							c32.6,6.3,82.2,3.7,110.8-5.8C1101.9,436.8,1108.3,431.7,1108.1,426.8z"/>
					</g>
					<g id="g622">
						<path id="path620" inkscape:connector-curvature="0" class="st9" d="M1081.3,412.5c32.6,6.3,35.9,19.2,7.4,28.8
							s-78.1,12.2-110.8,5.8c-32.6-6.3-35.9-19.2-7.4-28.8C999.1,408.7,1048.7,406.1,1081.3,412.5z M986.8,444.1
							c27,5.3,68.1,3.1,91.7-4.8c23.6-7.9,20.9-18.6-6.1-23.9c-27-5.3-68.1-3.1-91.7,4.8C957.1,428.2,959.8,438.9,986.8,444.1z"/>
					</g>
					<path id="path624" inkscape:connector-curvature="0" class="st10" d="M1072.5,415.4c27,5.3,29.8,15.9,6.1,23.9
						c-23.7,7.9-64.7,10.1-91.7,4.8c-27-5.3-29.7-15.9-6.1-23.8C1004.4,412.3,1045.4,410.2,1072.5,415.4z"/>
					<path id="path626" inkscape:connector-curvature="0" class="st11" d="M980.7,422.6c23.7-7.9,64.7-10.1,91.7-4.8
						c13.4,2.6,20.9,6.6,22,10.9c1.3-5.2-6.1-10.2-22-13.3c-27-5.3-68.1-3.1-91.7,4.8c-11.9,4-17.1,8.7-15.9,13
						C965.7,429.6,971,425.9,980.7,422.6z"/>
					<g id="g630">
						<path id="path628" inkscape:connector-curvature="0" class="st11" d="M1046.4,433.8c2,1.8,0.5,4-4.9,5.8
							c-6.2,2.1-15.7,3-24.2,2.7c-3.1-0.1-6-0.5-8.5-1l-1.5-0.3l-0.5,0.2l-2,0.7l-1.2-0.2l-6.1-1.2l2.5-0.8l-4.4-0.8l-0.5,0.2
							l-2,0.7l-1.2-0.2l-6.1-1.2l2.5-0.8l-4.4-0.8l5.8-2l0.5-0.2l3.2,0.6l1.2,0.2l17.8-6l6.4-2.1l15.3-5.1l-4.4-0.8l5.8-2l0.5-0.2
							l3.2,0.6l1.2,0.2l2-0.7l0.5-0.2l7.3,1.4l-2.6,0.8l3.2,0.6l1.2,0.2l2-0.7l0.5-0.2l7.3,1.4l-2.6,0.8c8.8,1.7,9.7,5.2,2,7.8
							C1057.6,432.7,1052,433.6,1046.4,433.8L1046.4,433.8z M1019.8,439.8c5,0.3,10.8-0.3,14.5-1.5c4.9-1.7,4.3-3.9-1.3-5l-13.1-2.5
							l-0.5,0.2l-17.3,5.8l13.1,2.5C1016.6,439.5,1018.2,439.7,1019.8,439.8L1019.8,439.8z M1041,423.6l-14.8,4.9l11.6,2.3
							c1.2,0.2,2.5,0.4,3.8,0.5c4.3,0.2,9.3-0.2,12.5-1.3c4.2-1.4,3.7-3.3-1.1-4.3l-11.6-2.3L1041,423.6z"/>
					</g>
					<g id="g634">
						<path id="path632" inkscape:connector-curvature="0" class="st12" d="M1046.4,431.4c2,1.8,0.5,4-4.9,5.8
							c-6.2,2.1-15.7,3-24.2,2.7c-3.1-0.1-6-0.5-8.5-0.9l-1.5-0.3l-0.5,0.2l-2,0.7l-1.2-0.2l-6.1-1.2l2.5-0.8l-4.4-0.8l-0.5,0.2
							l-2,0.7l-1.2-0.2l-6.1-1.2l2.5-0.8l-4.4-0.8l5.8-2l0.5-0.2l3.2,0.6l1.2,0.2l17.8-6l6.4-2.1l15.3-5.1l-4.4-0.8l5.8-2l0.5-0.2
							l3.2,0.6l1.2,0.2l2-0.7l0.5-0.2l7.3,1.4l-2.6,0.8l3.2,0.6l1.2,0.2l2-0.7l0.5-0.2l7.3,1.4l-2.6,0.8c8.8,1.7,9.7,5.2,2,7.8
							C1057.6,430.4,1052,431.2,1046.4,431.4L1046.4,431.4z M1019.8,437.4c5,0.3,10.8-0.3,14.5-1.5c4.9-1.7,4.3-3.9-1.3-5l-13.1-2.5
							l-0.5,0.2l-17.3,5.8l13.1,2.5C1016.6,437.1,1018.2,437.3,1019.8,437.4L1019.8,437.4z M1041,421.3l-14.8,5l11.6,2.3
							c1.2,0.2,2.5,0.4,3.8,0.5c4.3,0.2,9.3-0.2,12.5-1.3c4.2-1.4,3.7-3.3-1.1-4.3l-11.6-2.3L1041,421.3z"/>
					</g>
					<path id="path636" inkscape:connector-curvature="0" class="st11" d="M958.6,441.1v18.7c4.5,2.5,11.2,4.7,20,6.4
						c8.8,1.7,18.7,2.8,29.2,3.2v-19.1c-10.7-0.4-20.9-1.5-29.9-3.2C969.6,445.5,963.1,443.4,958.6,441.1z"/>
				</g>
			</g>
			<g id="g662">
				<g id="g660" class="st8">
					<g id="g644">
						<path id="path642" inkscape:connector-curvature="0" class="st9" d="M972.6,428.8c-0.2-5.2-0.4-12.1-0.7-17.3
							c0.1,3.6,0.5,13.2,0.7,16.9C972.6,428.6,972.6,428.7,972.6,428.8z"/>
					</g>
					<g id="g648">
						<path id="path646" inkscape:connector-curvature="0" class="st10" d="M1115.3,404.3c0.3,6.4,0.5,12.8,0.7,19.1
							c0.2,4.9-6.2,10-19.4,14.5c-28.6,9.6-78.1,12.2-110.8,5.8c-17.5-3.4-26.6-8.7-26.8-14.3l-0.7-19.1c0.2,5.7,9.3,11,26.8,14.3
							c32.6,6.3,82.2,3.7,110.8-5.8C1109.2,414.3,1115.5,409.2,1115.3,404.3z"/>
					</g>
					<g id="g652">
						<path id="path650" inkscape:connector-curvature="0" class="st9" d="M1088.6,389.9c32.6,6.3,35.9,19.2,7.4,28.8
							s-78.1,12.2-110.8,5.8c-32.6-6.3-35.9-19.2-7.4-28.8C1006.4,386.2,1055.9,383.6,1088.6,389.9z M994.1,421.6
							c27,5.3,68.1,3.1,91.7-4.8c23.7-7.9,20.9-18.6-6.1-23.8c-27-5.3-68.1-3.1-91.7,4.8C964.3,405.7,967,416.3,994.1,421.6z"/>
					</g>
					<path id="path654" inkscape:connector-curvature="0" class="st10" d="M1079.7,392.9c27,5.3,29.8,15.9,6.1,23.8
						s-64.7,10.1-91.7,4.8c-27-5.3-29.8-15.9-6.1-23.8S1052.7,387.6,1079.7,392.9z"/>
					<path id="path656" inkscape:connector-curvature="0" class="st11" d="M988,400.1c23.7-7.9,64.7-10.1,91.7-4.8
						c13.4,2.6,20.9,6.6,22,10.9c1.3-5.2-6.1-10.2-22-13.3c-27-5.3-68.1-3.1-91.7,4.8c-11.9,4-17.1,8.7-15.9,13
						C973,407.1,978.2,403.4,988,400.1z"/>
					<path id="path658" inkscape:connector-curvature="0" class="st11" d="M965.9,418.5v18.7c4.5,2.5,11.2,4.7,20,6.4
						c8.8,1.7,18.7,2.8,29.2,3.2v-19.1c-10.7-0.4-20.9-1.5-29.9-3.2C976.8,422.9,970.4,420.9,965.9,418.5L965.9,418.5z"/>
				</g>
			</g>
		</g>
	</g>
</g>
<g id="g676">
	<polygon id="polygon670" class="st13" points="909.4,249.5 683.6,475.3 621.6,413.3 481.6,553.2 380.6,452.2 206.6,626.2 
		235.9,626.2 380.6,481.5 481.6,582.5 621.6,442.5 683.6,504.6 909.4,278.8 1030.5,399.9 1181,249.4 1166.3,234.8 1030.5,370.6 	"/>
	<g id="g674">
		<polygon id="polygon672" class="st13" points="1125.6,248.2 1125.6,227.5 1188.3,227.5 1188.3,290.2 1167.6,290.2 1167.6,248.2 		
			"/>
	</g>
</g>
<g id="g682">
	<path id="path678" inkscape:connector-curvature="0" class="st3" d="M737.3,69.2c-42.6-1.8-81.7,10.4-108.4,26.2
		c-27,16.2-41.6,36.2-40.8,57.2c0.8,21.2,8.9,61.7,30.7,81.1c22,19.1,216.4,45.8,234.8-32.7C869.2,134.5,824.6,70.8,737.3,69.2
		L737.3,69.2z"/>
	<path id="path680" inkscape:connector-curvature="0" class="st3" d="M640.5,221.7c0,0,9.1,40.7,62.1,57.8c0,0-34.6-53.7-15.9-84.6
		C697.8,176.3,640.5,221.7,640.5,221.7z"/>
</g>
<g id="g708">
	<g id="g686">
		<path id="path684" inkscape:connector-curvature="0" class="st13" d="M220.7,604.3c-44.4-112.5-100.6-153.7-101.1-154.1l0.9-1.2
			c0.6,0.4,57.1,41.9,101.7,154.8L220.7,604.3z"/>
	</g>
	<g id="g690">
		<path id="path688" inkscape:connector-curvature="0" class="st13" d="M227,590.7c-11.6-68.7-51.6-125.3-52-125.8l1.2-0.8
			c0.4,0.6,40.6,57.3,52.3,126.4L227,590.7z"/>
	</g>
	<g id="g694">
		<path id="path692" inkscape:connector-curvature="0" class="st13" d="M201.3,599.5c-5.6-32.7-21.4-52.4-33.6-63.2
			c-13.2-11.7-25.3-15.6-25.4-15.6l0.5-1.4c0.1,0,12.4,4.1,25.9,15.9c12.4,10.9,28.4,30.9,34.1,64L201.3,599.5z"/>
	</g>
	<path id="path696" inkscape:connector-curvature="0" class="st13" d="M112.6,440.9c-9,7.6-13.8,16.7-10.7,20.3
		c3.1,3.6,12.8,0.5,21.8-7.1c9-7.6,13.8-16.7,10.7-20.3C131.4,430.2,121.6,433.4,112.6,440.9L112.6,440.9z"/>
	<path id="path698" inkscape:connector-curvature="0" class="st7" d="M116.4,445.4c-2.9,2.4-4.4,5.3-3.4,6.4c1,1.2,4.1,0.2,6.9-2.3
		c2.8-2.4,4.4-5.3,3.4-6.4C122.4,442,119.3,443,116.4,445.4z"/>
	<path id="path700" inkscape:connector-curvature="0" class="st13" d="M172.5,460.9c-3.7,3.2-5.8,6.9-4.5,8.5s5.3,0.2,9.1-3
		c3.7-3.2,5.8-6.9,4.5-8.5C180.3,456.4,176.3,457.7,172.5,460.9z"/>
	<path id="path702" inkscape:connector-curvature="0" class="st7" d="M174.1,462.7c-1.2,1-1.8,2.2-1.4,2.7c0.4,0.5,1.7,0.1,2.9-0.9
		c1.2-1,1.8-2.2,1.4-2.7C176.6,461.3,175.3,461.7,174.1,462.7z"/>
	<path id="path704" inkscape:connector-curvature="0" class="st13" d="M138.8,517.4c-3.6,5.2-4.8,10.6-2.7,12
		c2.1,1.5,6.7-1.6,10.3-6.7c3.6-5.2,4.8-10.6,2.7-12C147,509.2,142.4,512.2,138.8,517.4z"/>
	<path id="path706" inkscape:connector-curvature="0" class="st7" d="M141.3,519.2c-1.1,1.6-1.5,3.3-0.9,3.8
		c0.7,0.5,2.1-0.5,3.3-2.1c1.1-1.6,1.5-3.3,0.9-3.8C144,516.6,142.5,517.6,141.3,519.2z"/>
</g>
<path id="path710" inkscape:connector-curvature="0" class="st5" d="M302.8,608.4V539c-14.8-7-33.2-8.2-51.4,4.4
	c-12.2,8.6-15.4,21.1-31.1,28.3c-16.5,7.6-46.6-13.9-86.3-0.7c-16.5,5.5-39.7,18.3-57.1,37.3H302.8z"/>
<g id="g716">
	<path id="path712" inkscape:connector-curvature="0" class="st13" d="M468.3,236.9c44.2,1.5,117-2.9,146.5-13.4
		c29.8-10.8,34.5-91.9,14.6-112.7C609.2,90.3,552.6,84,524.5,82.2c-70.1-4.5-133.1,0.9-122.1,63.2
		C413.8,210.1,420.4,235.2,468.3,236.9L468.3,236.9z"/>
	<path id="path714" inkscape:connector-curvature="0" class="st13" d="M600.7,217.1c0,0,1.2,24.6-30.2,42.6c0,0,13-36-4.4-50.8
		C555.7,200,600.7,217.1,600.7,217.1L600.7,217.1z"/>
</g>
<g id="g720">
	
		<rect id="rect718" x="407.2" y="24.1" transform="matrix(0.3058 -0.9521 0.9521 0.3058 243.3688 420.4156)" class="st14" width="5.5" height="38.5"/>
</g>
<g id="g724">
	
		<rect id="rect722" x="386.5" y="70" transform="matrix(0.9998 -2.209902e-02 2.209902e-02 0.9998 -1.5094 8.9837)" class="st14" width="38.5" height="5.5"/>
</g>
<g id="g728">
	
		<rect id="rect726" x="585.7" y="51.5" transform="matrix(0.9801 -0.1984 0.1984 0.9801 1.2533 121.1001)" class="st14" width="38.5" height="5.5"/>
</g>
<g id="g732">
	
		<rect id="rect730" x="575.2" y="23.7" transform="matrix(0.8615 -0.5078 0.5078 0.8615 68.8786 305.5046)" class="st14" width="38.5" height="5.5"/>
</g>
<g id="g736">
	
		<rect id="rect734" x="556.8" y="5.1" transform="matrix(0.7262 -0.6875 0.6875 0.7262 149.067 389.9604)" class="st14" width="14.6" height="5.5"/>
</g>
<g id="g758">
	<path id="path738" inkscape:connector-curvature="0" class="st15" d="M570.9,81.1c0-39.1-23.6-70.9-66.3-70.9
		c-42.7,0-66.3,31.7-66.3,70.9c0,30.5,21.4,41.1,39.6,66.4c3.6,5,0,24.7,0,24.7h53.4c0,0-3.6-19.7,0-24.7
		C549.5,122.2,570.9,111.6,570.9,81.1L570.9,81.1z"/>
	<path id="path740" inkscape:connector-curvature="0" class="st6" d="M477,172.2v7.4c0,12.2,9.9,22.1,22.1,22.1h11
		c12.2,0,22.1-9.9,22.1-22.1v-7.4H477z"/>
	<g id="g744">
		<polygon id="polygon742" class="st14" points="473.2,77.1 483.8,63.2 492.3,74.3 500.7,63.2 509.2,74.3 517.7,63.2 526.1,74.3 
			534.6,63.2 545.3,77.1 540.9,80.5 534.6,72.3 526.1,83.3 517.7,72.3 509.2,83.3 500.7,72.3 492.3,83.3 483.8,72.3 477.6,80.5 		
			"/>
	</g>
	<g id="g748">
		<polygon id="polygon746" class="st14" points="482.5,89.3 487.7,87.6 500.1,124.5 500.1,171.3 494.6,171.3 494.6,125.4 		"/>
	</g>
	<g id="g752">
		<polygon id="polygon750" class="st14" points="523.9,87.6 529.2,89.3 517.1,125.4 517.1,171.3 511.5,171.3 511.5,124.5 		"/>
	</g>
	<rect id="rect754" x="492" y="176" class="st16" width="34.5" height="5.7"/>
	<rect id="rect756" x="492" y="186.4" class="st16" width="24.8" height="5.7"/>
</g>
<g id="g782">
	<path id="path760" inkscape:connector-curvature="0" class="st15" d="M338.3,506.6c-45.9-17.1-93.4-3.3-112,46.7
		c-18.7,50.1,8.3,91.5,54.1,108.6c35.8,13.3,57.6-7.1,95.2-17.4c7.4-2,28.9,10.8,28.9,10.8l23.3-62.6c0,0-24.6-4.4-28.9-10.8
		C377.1,549.6,374.1,519.9,338.3,506.6L338.3,506.6z"/>
	<path id="path762" inkscape:connector-curvature="0" class="st10" d="M398.9,623.5c-52,14.2-82.1,42.4-131.5,24
		c-10.6-4-20.5-8.9-29.5-14.6c10.5,12.6,25.1,22.6,42.5,29.1c35.8,13.3,57.6-7.1,95.2-17.4c7.4-2,28.9,10.8,28.9,10.8l10.7-28.7
		C408.8,624.1,402.6,622.5,398.9,623.5z"/>
	<path id="path764" inkscape:connector-curvature="0" class="st6" d="M404.1,656.4l8.6,3.2c14.3,5.3,30.2-1.9,35.5-16.3l4.8-13
		c5.3-14.3-1.9-30.2-16.3-35.5l-8.6-3.2L404.1,656.4z"/>
	<g id="g768">
		<polygon id="polygon766" class="st14" points="286.7,581 303.3,575.9 294.1,561.1 310.7,556 301.5,541.3 322.4,534.8 324.5,541.4 
			312.1,545.2 321.3,560 304.7,565.1 314,579.8 297.3,584.9 306.6,599.7 289.9,604.8 296.8,615.7 290.9,619.4 279.3,600.8 
			295.9,595.7 		"/>
	</g>
	<g id="g772">
		<polygon id="polygon770" class="st14" points="309.6,606.8 358.3,608.5 413.1,628.9 410.7,635.4 356.9,615.3 309.3,613.7 		"/>
	</g>
	<g id="g776">
		<polygon id="polygon774" class="st14" points="329.7,559.1 366.7,589 420.5,609 418.1,615.5 363.2,595.1 325.4,564.4 		"/>
	</g>
	
		<rect id="rect778" x="404.4" y="617.9" transform="matrix(0.3492 -0.937 0.937 0.3492 -305.1609 803.6108)" class="st16" width="43.2" height="7.2"/>
	
		<rect id="rect780" x="420.4" y="628.1" transform="matrix(0.3492 -0.937 0.937 0.3492 -308.1822 819.6203)" class="st16" width="31.1" height="7.2"/>
</g>
<path id="path784" inkscape:connector-curvature="0" class="st16" d="M485.3,196.7c3.8,3,8.5,4.9,13.8,4.9h11c5.2,0,10-1.9,13.8-4.9
	H485.3z"/>
<g id="g914">
	<g id="g810">
		<path id="path786" inkscape:connector-curvature="0" class="st17" d="M487.6,424.2L525,576.6c0,0,29.7,15.5,29.3-23.5
			c-0.3-38.9-8.3-125.7-8.3-125.7L487.6,424.2z"/>
		<rect id="rect788" x="533.1" y="675.8" class="st18" width="18.2" height="32.1"/>
		<polygon id="polygon790" class="st18" points="456.5,707.4 473.9,709.7 475.4,680.5 458.4,683.3 		"/>
		<path id="path792" inkscape:connector-curvature="0" class="st19" d="M468.7,429.8l1,162.8c0,0,11.5,26.2,19.2,17.5
			c5.9-6.8,25.2-82.9,32.2-133.9c2-14.8,20.7-37,19.5-50.4C540,419.5,468.7,429.8,468.7,429.8z"/>
		<path id="path794" inkscape:connector-curvature="0" class="st20" d="M533.9,717.3h13.3v-4.7l5.8,4.7h33.5c0,0-0.6-6.4-23.1-7.4
			c-5.8-0.3-9.8-9.4-9.8-9.4s-2.9-3-7.2,4c-1.1,1.8-13.3-1.7-13.3-1.7S531.9,712.3,533.9,717.3L533.9,717.3z"/>
		<path id="path796" inkscape:connector-curvature="0" class="st20" d="M456.3,717.5l13.3,0.7l0.2-4.7l5.6,5l33.5,1.8
			c0,0-0.4-6.5-22.8-8.7c-5.8-0.6-9.5-10-9.5-10s-2.8-3.2-7.3,3.7c-1.2,1.8-13.2-2.4-13.2-2.4S454.5,712.3,456.3,717.5L456.3,717.5z
			"/>
		<rect id="rect798" x="468.8" y="421.4" class="st19" width="78.6" height="8"/>
		<rect id="rect800" x="538.6" y="420.3" class="st17" width="2.9" height="10.8"/>
		<rect id="rect802" x="512.5" y="420.3" class="st17" width="2.9" height="10.8"/>
		<rect id="rect804" x="479.9" y="420.3" class="st17" width="2.9" height="10.8"/>
		<path id="path806" inkscape:connector-curvature="0" class="st19" d="M470.7,554.1l-16.6,148.7l23.9,1.6
			c0,0,24.2-152.1,21.6-157.9C493.1,531.6,471.5,549.2,470.7,554.1L470.7,554.1z"/>
		<path id="path808" inkscape:connector-curvature="0" class="st17" d="M524.7,555.8l6.3,150.6l22-2.1c0,0,6.4-152.6-1.7-158.2
			C543.2,540.4,524.7,548.8,524.7,555.8z"/>
	</g>
	<path id="path812" inkscape:connector-curvature="0" class="st5" d="M520.7,304.3c0,0-16,6.7,3.6,54.9
		c19.6,48.2,29.7,41.9,29.7,41.9l13-1.8l22.7-31.6L575.2,356l-2.7,1.2c0,0-3.6-1.4-4.3-4.7c-0.7-3.3-9.3-17.5-18.1-45.4
		C543.7,286.4,523.7,303,520.7,304.3L520.7,304.3z"/>
	<path id="path814" inkscape:connector-curvature="0" class="st21" d="M586.2,368.4c0,0,27.3,14.9,43.9,16.8
		c11.1,1.2-11.9,13.7-34.7,16.1c-22.9,2.5-31.7,1.5-36.7-6.6C553.8,386.7,586.2,368.4,586.2,368.4L586.2,368.4z"/>
	<path id="path816" inkscape:connector-curvature="0" class="st3" d="M557.6,361.6l7.8-5.8l3.3-2.1c1.1,2.5,3.9,3.5,3.9,3.5
		l-6.7,3.2l-7.1,5.2l-7,9.9L557.6,361.6z"/>
	<path id="path818" inkscape:connector-curvature="0" class="st3" d="M546.4,445.6l-80.9-0.9l-8.7-100.3c0,0-17.1-60.3,15.6-61
		s73.8,12.4,73.8,12.4S564.9,304.2,546.4,445.6L546.4,445.6z"/>
	<path id="path820" inkscape:connector-curvature="0" class="st22" d="M538.2,227.7c0,0,4.3,43.3-5.5,48.4c-0.4,0.2-7.4,0.5-11,3.8
		c-3.4,3.1-3.6,6.6-4.8,7.9c-0.4,0.5-1.8,3.4-2.7,4.1c-3.7,3.2-6.7-0.9-8.8-1.8c-5.1-2.3-6.4,3.8-7.2,1.7c-0.5-1.5-5.3-3.7-4.1-5.6
		c2.5-4,8.8-20.3,8.6-23.5c-0.8-9.5-11-27,5.6-37.7C513.2,221.9,537.1,224.9,538.2,227.7L538.2,227.7z"/>
	<polygon id="polygon822" class="st5" points="491.4,287.8 493.6,283.9 512.1,293.3 510.6,303.8 	"/>
	<polygon id="polygon824" class="st5" points="520.9,300.2 513.3,293.5 517.8,286.6 520.7,289.1 	"/>
	<path id="path826" inkscape:connector-curvature="0" class="st21" d="M532.8,275.4c0,0-1.3-0.7-3.8-2.4c-0.8-0.5-3.2-2.1-4.5-2.5
		c-5.9-1.8-5.7-1.2-9.1-3c-3.8-2-11-8-11-8s2.3,4.4,3.2,6.2c1.7,3.3,4.3,5,6.6,5.9c10,4.2,9.3,5,10.7,5
		C525.1,276.7,525.9,276.3,532.8,275.4L532.8,275.4z"/>
	<path id="path828" inkscape:connector-curvature="0" class="st22" d="M537.7,245.4c0,0.8,2.8,7.7,3.3,9c0.5,1.3,1.2,2.9,1,3.4
		s-1.6,1.8-2.2,2.2c-0.6,0.5-2.8,2.5-3.2-0.8C536.2,255.9,537.7,245.4,537.7,245.4z"/>
	<path id="path830" inkscape:connector-curvature="0" class="st17" d="M507.6,223.1c8.1-6.3,24.2-4.6,35.2,6c0,0-0.4,2.6-4.3,4.7
		c0,0-6.4-8.3-16.9-7.1c-11,1.2-3.4,6.5-6,9.2c-2.2,2.2-4.2,4.1-4.2,4.1l-1.7,6.1l-2.9,0.3c0,0-1.5-6.6-3-4.6c-1.8,2.4-1,7.3-0.9,8
		c0.1,0.7,0.1,1.9-0.2,2.1c-0.3,0.1,0.5,3.9-0.3,10.3c-1.3,0-3-1.8-3.8-5.9C496.9,247.1,497.8,230.8,507.6,223.1L507.6,223.1z"/>
	<path id="path832" inkscape:connector-curvature="0" class="st22" d="M504.6,241.4c-2.5-0.1-4.5,1.8-4.7,4.3
		c-0.1,2.5,1.8,4.5,4.3,4.7L504.6,241.4z"/>
	<path id="path834" inkscape:connector-curvature="0" class="st21" d="M534,257.6c0,0,5.2-1.3,5.8-1.1c0.5,0.1,1.9,0.3,1.9,0.8
		c0,0.5-0.8,1.9-3.4,3.3C537.7,261,538.1,259.7,534,257.6z"/>
	<path id="path836" inkscape:connector-curvature="0" class="st22" d="M499.3,401.7l69.2,38.7c0,0-2.8,5.3-7.2,5.6
		c-12,0.8-38.6-3.2-51-7.6c-16.9-6.1-32.4-15.5-32.4-15.5L499.3,401.7z"/>
	<path id="path838" inkscape:connector-curvature="0" class="st21" d="M627,387l18.3-10.6l11.8,1.3c0,0,1.3,2.8-2.7,4.8
		c-4,2-9.1,2.6-9.1,2.6l-7.8,11.7c0,0,7.7,4.5,9.7,3.5c2-1,10-4.8,10-4.8s-4.6,9.8-9.5,9.8s-10.2,0-13.8-0.6
		c-3.7-0.6-4.9-11.1-8.6-12.9C621.5,390.1,627,387,627,387L627,387z"/>
	<g id="g902">
		<polygon id="polygon840" class="st22" points="638.8,399.2 644.3,401.1 666.7,393.7 657.9,378 655,382.6 647.2,382.3 637.3,396 		
			"/>
		<g id="g864">
			<path id="path842" inkscape:connector-curvature="0" class="st22" d="M663.5,319.4L618,277.8c0,0-3,3.7-1.9,7
				c3.1,9,14.3,27.2,21.4,34.9c9.7,10.5,21.4,18.9,21.4,18.9L663.5,319.4z"/>
			<g id="g858">
				<g id="g854">
					<path id="path844" inkscape:connector-curvature="0" class="st22" d="M618,289l-5.8-4.9c0,0-2.8-2.2-5.2-5.8
						c-2.4-3.7-1-7.2,2.1-10.1c3.1-2.9,5.4-3.3,5.4-3.3s4.9,2.2,4.3,6.6c-0.6,4.4,3.8,14.2,2.1,14.9C619.2,287.1,618,289,618,289z"
						/>
					<polygon id="polygon846" class="st22" points="605.3,254.1 604.5,255.7 608,260.2 609.8,269.5 612,268.2 616.6,265.8 
						610.8,259.6 					"/>
					<polygon id="polygon848" class="st22" points="606,262.5 599.8,259.2 598.7,260.6 604.2,264.9 608.2,271.1 612,268.2 					"/>
					<polygon id="polygon850" class="st22" points="606.2,266.7 608.6,269.9 606.4,273.2 603.8,269.6 597.7,265.5 597.6,263.4 
						602.6,265.6 					"/>
					<polygon id="polygon852" class="st22" points="596.4,268.8 606.1,271.3 607.7,273.7 606.3,276.1 602.3,273.3 597.1,270.4 					
						"/>
				</g>
				<path id="path856" inkscape:connector-curvature="0" class="st22" d="M623.7,288.9c-3.1-3.2-2.4-7.9-2.4-7.9s1.4-11.8-0.3-13.8
					c-1.7-2-2.8-7-2.8-7s-1.5-1.9-2.1,2.9c-0.4,3.1,0.2,5.9,0.2,5.9s-3.2,6.4-2.9,8.5c0.5,4.3,8.2,11.9,8.2,11.9
					S624.2,289.3,623.7,288.9L623.7,288.9z"/>
			</g>
			<path id="path860" inkscape:connector-curvature="0" class="st5" d="M718,307.5l-50.6,9.3l-1.9,3.3l-2.9-2.4l-6.4,19.4l14.6,11
				l68.9-14c0,0,15.1-7.1,20.2-26.8C763.4,293.1,722.2,306.9,718,307.5L718,307.5z"/>
			<path id="path862" inkscape:connector-curvature="0" class="st3" d="M667.1,340c0,0-0.7-14-0.8-21.2l-0.8,1.4l-2.9-2.4l-2.2,6.7
				l-1.7,10l3.7,2.1l1.2-2.8L667.1,340z"/>
		</g>
		<g id="g900">
			<path id="path866" inkscape:connector-curvature="0" class="st21" d="M742.4,293.8c-0.1,6.4,2.7,12.3,6.3,13
				c3.4,0.4,6.8,0.7,10.3,1.1c3.7,0.1,7.7-5.1,8.9-11.4c1.9-10.4,3.9-20.9,5.9-31.3c1.2-6.3,0.1-19.2-5-23.5
				c-4.6-3.9-10.4-4.5-15.7-1.7c-5.9,3.2-9.7,15.6-9.8,22C742.9,272.5,742.7,283.2,742.4,293.8z"/>
			<path id="path868" inkscape:connector-curvature="0" class="st22" d="M713.5,387.9l-57,1.7c0,0,42.3,25.4,57.6,12.6
				C729.4,389.4,713.5,387.9,713.5,387.9z"/>
			<path id="path870" inkscape:connector-curvature="0" class="st23" d="M740,728.1l0.1,5.8l32.2-0.7l0.4-15.6l-19.4-0.2
				C753.3,717.4,743,727.2,740,728.1z"/>
			<path id="path872" inkscape:connector-curvature="0" class="st17" d="M763.7,454.5c0,0-14.6,95.8-31.1,138
				C718,629.9,699,582,699,582l24.7-160.7l46.3-4.5C770,416.8,773.2,417.9,763.7,454.5z"/>
			<path id="path874" inkscape:connector-curvature="0" class="st19" d="M733.4,425.3l-4.4,61.6l8.1,4.5c0,0,6.6,91.3,8.2,95.9
				c9.3,26.3,31.4,9.9,34.3,1s6.6-74.3,4.6-121.8c-2-47.6-2-47.6-2-47.6L733.4,425.3z"/>
			<path id="path876" inkscape:connector-curvature="0" class="st19" d="M746.8,562.8c0,0-3.4,16.3-2.2,47.1
				c0.8,19.5,3.8,71.1,8.2,109.5c0.3,2.3,19.4,0.2,19.4,0.2s9.1-125.1,9.6-149.3C781.9,563,761.7,545.2,746.8,562.8L746.8,562.8z"/>
			<path id="path878" inkscape:connector-curvature="0" class="st3" d="M740.6,297.9l30.1-6.7l15.5,17.4c0,0,11.5,15.4,11.7,49.9
				c0.3,34.6-11.5,98.7-11.5,98.7l-69-22.2C717.4,435,720.6,313.5,740.6,297.9L740.6,297.9z"/>
			<path id="path880" inkscape:connector-curvature="0" class="st5" d="M777.7,307.3c0,0,13.3,6.8,6.9,26.6
				c-10.9,33.7-33.6,61.5-37.9,67.1s-19.2,19-29.2,14.6c-10-4.5-10-4.5-10-4.5l-0.7-22.5l6.6-0.7l3.9-0.7c0,0,13.8-21.9,25.3-43.3
				C754.3,322.6,777.7,307.3,777.7,307.3L777.7,307.3z"/>
			<polygon id="polygon882" class="st5" points="743.5,296.8 748.7,311.4 775.8,297.2 773,289.1 			"/>
			<polygon id="polygon884" class="st5" points="742.1,293.2 742.7,296.5 736.6,305.3 736.8,298 			"/>
			<path id="path886" inkscape:connector-curvature="0" class="st17" d="M706.7,579.7c0,0,5.4,1.6,22.5,1.9
				c17.1,0.3-19.1,138.3-19.1,138.3l-24.4-8.4L700.3,573L706.7,579.7z"/>
			<path id="path888" inkscape:connector-curvature="0" class="st23" d="M708.3,718.4l-2,12.1l-12.3,0.3c0,0-9.2,0.2-11.5,0.2
				c-2.3,0-16.1,0.3-16.1,0.3l-0.1-4.4c0,0,19-7,22.7-14.5C692.6,705,708.3,718.4,708.3,718.4L708.3,718.4z"/>
			<g id="g898">
				<path id="path890" inkscape:connector-curvature="0" class="st17" d="M752,232.8l-0.7-7.3l-3,0.3l-8,0.8l-4.8,0.5
					c-5.3,0.5-9.2,5.2-8.7,10.5l0.7,7.3l3-0.3l8-0.8l4.8-0.5C748.6,242.8,752.5,238.1,752,232.8z"/>
				<path id="path892" inkscape:connector-curvature="0" class="st22" d="M771.4,275.7c0.4,4.7-3,8.9-7.7,9.4l-19.4,1.9
					c-4.7,0.5-8.9-3-9.4-7.7l-3.7-38.8c-0.5-4.7,3-8.9,7.7-9.4l19.4-1.9c4.7-0.5,8.9,3,9.4,7.7L771.4,275.7z"/>
				<path id="path894" inkscape:connector-curvature="0" class="st17" d="M751.9,225.4c3.4-0.3,6.5,1.1,8.5,3.6l3.3-0.3
					c4.1-0.4,7.8,2.6,8.2,6.7l1.8,18.4l-5.3,0.5l-0.7-7.5c-0.3-2.9-2.8-5-5.7-4.7l-3.1,0.3l-8,0.8l-4.8,0.5
					c-5.3,0.5-10-3.4-10.5-8.7l-0.8-7.9L751.9,225.4z"/>
				<path id="path896" inkscape:connector-curvature="0" class="st22" d="M767.2,259.3c-0.2-2.5,1.6-4.8,4.1-5l0.4,0
					c2.5-0.2,4.8,1.6,5,4.1l0.5,5.5c0.2,2.5-1.6,4.8-4.1,5l-0.4,0c-1.9,0.2-3.6-0.8-4.4-2.3L767.2,259.3z"/>
			</g>
		</g>
	</g>
	<g id="g908">
		<path id="path904" inkscape:connector-curvature="0" class="st22" d="M560.5,445.1c0,0,3.9-9.4,6.2-10.8
			c2.3-1.4,11.1-5.9,11.1-5.9l2.3-1c0,0,2.4,2-3.6,5c-5.9,3-2.3,3.1-2.3,3.1l6.3-0.6l7.8-0.2l3.5-0.5c0,0,2-0.5,2.5-0.2
			c1.6,0.9,0.3,1.8,0.3,1.8l-13.4,3.2l13,0.5c0,0,1.7,0.3,1.8,1.2c0.1,0.8-0.4,0.9-0.4,0.9l-14.9,3l6.7,1c0,0,1.6,0.4,1.8,1.2
			c0.2,0.9,0.3,1.2,0.3,1.2l-24.1,0.2L560.5,445.1z"/>
		<path id="path906" inkscape:connector-curvature="0" class="st22" d="M582.1,441.5l9.1,0.8c0,0,2.1,0,3,0.6
			c1.1,0.7,0.5,1.7,0.5,1.7l-13.9,0.1L582.1,441.5z"/>
	</g>
	<path id="path910" inkscape:connector-curvature="0" class="st5" d="M484.6,336.6l12.6,59.4l5.7,5.7l4.3,5l-26.2,18.9l-20.5-11.9
		l-15.2-88.8c0,0-5.3-21.5,15.6-37.5C475.8,275.6,483.1,331.2,484.6,336.6z"/>
	<path id="path912" inkscape:connector-curvature="0" class="st3" d="M471.6,410c0,0,16.5-6,25-9.5l-1.3,1.7l4.2,2.2l-6.7,5.8
		l-10.8,6.8l-4.2-3.2l2.7-2.8L471.6,410z"/>
</g>
<g id="g920">
	<path id="path916" inkscape:connector-curvature="0" class="st16" d="M784.5,177.1l4.3-17.1l-8.7-4.3c0-2.5-0.1-5-0.5-7.6l8.5-4.5
		l-4.8-17l-10.7,0.7c-1.1-2-2.3-3.8-3.7-5.6l5.6-9l-12.7-12.3l-9.5,6.4c-1.8-1-3.6-2-5.4-2.8l0.4-11.2l-17.1-4.3l-5.1,10.4
		c-2,0-4,0-6,0.1l-5.3-9.9l-17,4.8l0.7,11.2c-1.9,1-3.7,2.1-5.5,3.2l-9.2-5.7l-12.3,12.7l5.8,8.7c-1.3,2-2.5,4-3.6,6.2l-9.9-0.4
		l-4.3,17.1l8.4,4.2c-0.2,2.7-0.2,5.4,0,8.1l-7.8,4.1l4.8,17l8.4-0.6c1.3,2.7,2.8,5.3,4.5,7.8l-4.2,6.7l12.7,12.3l6.4-4.3
		c2.7,1.8,5.5,3.3,8.4,4.7l-0.3,7.3l17.1,4.3l3.3-6.7c3.2,0.2,6.5,0.1,9.7-0.3l3.4,6.4l17-4.8l-0.5-7.8c2.8-1.5,5.4-3.2,7.9-5
		l6.5,4.1l12.3-12.7l-4.8-7.2c1.5-2.5,2.8-5,3.8-7.6L784.5,177.1z M730.5,179.7c-13.4,3.8-27.4-4-31.3-17.4
		c-3.8-13.4,4-27.4,17.4-31.3c13.4-3.8,27.4,4,31.3,17.4C751.7,161.9,743.9,175.9,730.5,179.7z"/>
	<path id="path918" inkscape:connector-curvature="0" class="st6" d="M711.9,114.3c-22.6,6.5-35.8,30-29.3,52.7
		c6.4,22.6,30,35.8,52.7,29.3c22.6-6.5,35.8-30,29.3-52.7C758.1,121,734.5,107.9,711.9,114.3z M732.8,187.8
		c-17.9,5.1-36.6-5.3-41.7-23.2c-5.1-18,5.3-36.6,23.2-41.7c17.9-5.1,36.6,5.3,41.7,23.2C761.2,164,750.8,182.7,732.8,187.8z"/>
</g>
<g id="g1038">
	<g id="g982">
		<g id="g950">
			<g id="g948" class="st8">
				<g id="g924">
					<path id="path922" inkscape:connector-curvature="0" class="st9" d="M844,634.6c-0.2-5.2-0.5-12.1-0.7-17.3
						c0.1,3.6,0.5,13.2,0.7,16.9C844,634.3,844,634.4,844,634.6z"/>
				</g>
				<g id="g928">
					<path id="path926" inkscape:connector-curvature="0" class="st10" d="M986.8,610c0.2,6.4,0.5,12.8,0.7,19.1
						c0.2,4.9-6.2,10-19.4,14.5c-28.6,9.6-78.1,12.2-110.8,5.8c-17.5-3.4-26.6-8.7-26.8-14.3l-0.7-19.1c0.2,5.7,9.3,11,26.8,14.3
						c32.6,6.3,82.2,3.7,110.8-5.8C980.6,620,987,614.9,986.8,610z"/>
				</g>
				<g id="g932">
					<path id="path930" inkscape:connector-curvature="0" class="st9" d="M960,595.7c32.6,6.3,35.9,19.2,7.4,28.8
						c-28.5,9.6-78.1,12.2-110.8,5.8c-32.6-6.3-35.9-19.2-7.4-28.8C877.8,591.9,927.4,589.3,960,595.7L960,595.7z M865.5,627.3
						c27,5.3,68.1,3.1,91.7-4.8c23.6-7.9,20.9-18.6-6.1-23.8c-27-5.3-68.1-3.1-91.7,4.8C835.7,611.4,838.5,622.1,865.5,627.3z"/>
				</g>
				<path id="path934" inkscape:connector-curvature="0" class="st10" d="M951.1,598.6c27,5.3,29.8,15.9,6.1,23.8
					c-23.7,7.9-64.7,10.1-91.7,4.8c-27-5.3-29.7-15.9-6.1-23.9C883,595.6,924.1,593.4,951.1,598.6z"/>
				<path id="path936" inkscape:connector-curvature="0" class="st11" d="M859.4,605.9c23.7-7.9,64.7-10.1,91.7-4.8
					c13.4,2.6,20.9,6.6,22,10.9c1.3-5.2-6.1-10.2-22-13.2c-27-5.3-68.1-3.1-91.7,4.8c-11.9,4-17.1,8.7-15.9,13
					C844.4,612.8,849.7,609.1,859.4,605.9z"/>
				<g id="g940">
					<path id="path938" inkscape:connector-curvature="0" class="st11" d="M925.1,617c2,1.8,0.5,4-4.9,5.8c-6.2,2.1-15.7,3-24.2,2.7
						c-3.1-0.1-6-0.5-8.5-0.9l-1.4-0.3l-0.5,0.2l-2,0.7l-1.2-0.2l-6.1-1.2l2.5-0.8l-4.4-0.8l-0.5,0.2l-2,0.7l-1.2-0.2l-6.1-1.2
						l2.5-0.8l-4.4-0.8l5.8-2l0.5-0.2l3.2,0.6l1.2,0.2l17.8-6l6.4-2.1l15.3-5.1l-4.4-0.8l5.8-2l0.5-0.2l3.2,0.6l1.2,0.2l2-0.7
						l0.5-0.2l7.3,1.4l-2.6,0.8l3.2,0.6l1.2,0.2l2-0.7l0.5-0.2l7.3,1.4l-2.6,0.8c8.8,1.7,9.7,5.2,2,7.8
						C936.2,616,930.7,616.8,925.1,617L925.1,617z M898.5,623c5,0.3,10.8-0.3,14.5-1.5c4.9-1.7,4.4-3.9-1.3-5l-13.1-2.5l-0.5,0.2
						l-17.3,5.8l13.1,2.5C895.3,622.7,896.8,622.9,898.5,623L898.5,623z M919.7,606.9l-14.8,4.9l11.6,2.3c1.2,0.2,2.5,0.4,3.8,0.5
						c4.3,0.2,9.3-0.2,12.5-1.3c4.2-1.4,3.7-3.3-1.1-4.3l-11.6-2.3L919.7,606.9z"/>
				</g>
				<g id="g944">
					<path id="path942" inkscape:connector-curvature="0" class="st12" d="M925.1,614.7c2,1.8,0.5,4-4.9,5.8
						c-6.2,2.1-15.7,3-24.2,2.7c-3.1-0.1-6-0.5-8.5-0.9l-1.4-0.3l-0.5,0.2l-2,0.7l-1.2-0.2l-6.1-1.2l2.5-0.8l-4.4-0.8l-0.5,0.2
						l-2,0.7l-1.2-0.2l-6.1-1.2l2.5-0.9l-4.4-0.8l5.8-2l0.5-0.2l3.2,0.6l1.2,0.2l17.8-6l6.4-2.1l15.3-5.1l-4.4-0.9l5.8-2l0.5-0.2
						l3.2,0.6l1.2,0.2l2-0.7l0.5-0.2l7.3,1.4l-2.6,0.8l3.2,0.6l1.2,0.2l2-0.7l0.5-0.2l7.3,1.4l-2.6,0.8c8.8,1.7,9.7,5.2,2,7.8
						C936.2,613.6,930.7,614.4,925.1,614.7L925.1,614.7z M898.5,620.6c5,0.3,10.8-0.3,14.5-1.5c4.9-1.6,4.4-3.9-1.3-5l-13.1-2.5
						l-0.5,0.2l-17.3,5.8l13.1,2.5C895.3,620.3,896.8,620.5,898.5,620.6L898.5,620.6z M919.7,604.5l-14.8,4.9l11.6,2.3
						c1.2,0.2,2.5,0.4,3.8,0.5c4.3,0.2,9.3-0.2,12.5-1.3c4.2-1.4,3.7-3.3-1.1-4.3l-11.6-2.3L919.7,604.5z"/>
				</g>
				<path id="path946" inkscape:connector-curvature="0" class="st11" d="M837.3,624.3V643c4.5,2.5,11.2,4.7,20,6.4
					c8.8,1.7,18.7,2.8,29.2,3.2v-19.1c-10.7-0.4-20.9-1.5-29.9-3.2C848.2,628.7,841.8,626.6,837.3,624.3z"/>
			</g>
		</g>
		<g id="g980">
			<g id="g978" class="st8">
				<g id="g954">
					<path id="path952" inkscape:connector-curvature="0" class="st9" d="M851.3,612c-0.2-5.2-0.4-12.1-0.7-17.3
						c0.1,3.6,0.5,13.2,0.7,16.9C851.3,611.8,851.3,611.9,851.3,612z"/>
				</g>
				<g id="g958">
					<path id="path956" inkscape:connector-curvature="0" class="st10" d="M994,587.5c0.3,6.4,0.5,12.8,0.7,19.1
						c0.2,4.9-6.2,10-19.4,14.5c-28.5,9.6-78.1,12.2-110.8,5.8c-17.5-3.4-26.6-8.7-26.8-14.3l-0.7-19.1c0.2,5.7,9.3,10.9,26.8,14.3
						c32.6,6.3,82.2,3.7,110.8-5.8C987.8,597.5,994.2,592.4,994,587.5z"/>
				</g>
				<g id="g962">
					<path id="path960" inkscape:connector-curvature="0" class="st9" d="M967.2,573.1c32.6,6.3,35.9,19.2,7.4,28.8
						s-78.1,12.2-110.8,5.8c-32.6-6.3-35.9-19.2-7.4-28.8C885,569.4,934.6,566.8,967.2,573.1L967.2,573.1z M872.7,604.8
						c27,5.3,68.1,3.1,91.7-4.8c23.7-7.9,20.9-18.6-6.1-23.8c-27-5.3-68.1-3.1-91.7,4.8C843,588.9,845.7,599.6,872.7,604.8z"/>
				</g>
				<path id="path964" inkscape:connector-curvature="0" class="st10" d="M958.4,576.1c27,5.3,29.8,15.9,6.1,23.8
					s-64.7,10.1-91.7,4.8c-27-5.3-29.8-15.9-6.1-23.9C890.3,573,931.3,570.9,958.4,576.1z"/>
				<path id="path966" inkscape:connector-curvature="0" class="st11" d="M866.6,583.3c23.7-7.9,64.7-10.1,91.7-4.8
					c13.4,2.6,20.9,6.6,22,10.9c1.3-5.2-6.1-10.2-22-13.2c-27-5.3-68.1-3.1-91.7,4.8c-11.9,4-17.1,8.7-15.9,13
					C851.6,590.3,856.9,586.6,866.6,583.3z"/>
				<g id="g970">
					<path id="path968" inkscape:connector-curvature="0" class="st11" d="M932.3,594.5c2,1.8,0.5,4-4.9,5.8
						c-6.2,2.1-15.8,3-24.2,2.7c-3.1-0.1-6-0.5-8.5-0.9l-1.4-0.3l-0.5,0.2l-2,0.7l-1.2-0.2l-6.1-1.2l2.5-0.8l-4.4-0.8l-0.5,0.2
						l-2,0.7l-1.2-0.2l-6.1-1.2l2.5-0.8l-4.4-0.8l5.8-2l0.5-0.2l3.2,0.6l1.2,0.2l17.8-6l6.4-2.1l15.3-5.1l-4.4-0.8l5.8-2l0.5-0.2
						l3.2,0.6l1.2,0.2l2-0.7l0.5-0.2l7.3,1.4l-2.5,0.8l3.2,0.6l1.2,0.2l2-0.7l0.5-0.2l7.3,1.4l-2.6,0.8c8.8,1.7,9.7,5.2,2,7.8
						C943.5,593.4,937.9,594.3,932.3,594.5L932.3,594.5z M905.7,600.5c5,0.3,10.8-0.3,14.5-1.5c4.9-1.7,4.3-3.9-1.3-5l-13.1-2.5
						l-0.5,0.2l-17.3,5.8l13.1,2.5C902.5,600.2,904.1,600.4,905.7,600.5L905.7,600.5z M926.9,584.3l-14.8,4.9l11.6,2.3
						c1.2,0.2,2.5,0.4,3.8,0.5c4.3,0.2,9.3-0.3,12.5-1.3c4.2-1.4,3.7-3.3-1.1-4.3l-11.6-2.3L926.9,584.3z"/>
				</g>
				<g id="g974">
					<path id="path972" inkscape:connector-curvature="0" class="st12" d="M932.3,592.1c2,1.8,0.5,4-4.9,5.8
						c-6.2,2.1-15.8,3-24.2,2.7c-3.1-0.1-6-0.4-8.5-0.9l-1.4-0.3l-0.5,0.2l-2,0.7l-1.2-0.2l-6.1-1.2l2.5-0.8l-4.4-0.8l-0.5,0.2
						l-2,0.7l-1.2-0.2l-6.1-1.2l2.5-0.8l-4.4-0.8l5.8-2l0.5-0.2l3.2,0.6l1.2,0.2l17.8-6l6.4-2.1l15.3-5.1l-4.4-0.8l5.8-2l0.5-0.2
						l3.2,0.6l1.2,0.2l2-0.7l0.5-0.2l7.3,1.4l-2.5,0.8l3.2,0.6l1.2,0.2l2-0.7l0.5-0.2l7.3,1.4l-2.6,0.8c8.8,1.7,9.7,5.2,2,7.8
						C943.5,591,937.9,591.9,932.3,592.1L932.3,592.1z M905.7,598.1c5,0.3,10.8-0.3,14.5-1.5c4.9-1.7,4.3-3.9-1.3-5l-13.1-2.5
						l-0.5,0.2L888,595l13.1,2.5C902.5,597.8,904.1,598,905.7,598.1L905.7,598.1z M926.9,582l-14.8,4.9l11.6,2.3
						c1.2,0.2,2.5,0.4,3.8,0.5c4.3,0.2,9.3-0.2,12.5-1.3c4.2-1.4,3.7-3.3-1.1-4.3l-11.6-2.3L926.9,582z"/>
				</g>
				<path id="path976" inkscape:connector-curvature="0" class="st11" d="M844.6,601.8v18.7c4.5,2.5,11.2,4.7,20,6.4
					c8.8,1.7,18.7,2.8,29.2,3.2V611c-10.7-0.4-20.9-1.5-29.9-3.2C855.5,606.1,849,604.1,844.6,601.8L844.6,601.8z"/>
			</g>
		</g>
	</g>
	<g id="g1036">
		<g id="g1012">
			<g id="g1010" class="st8">
				<g id="g986">
					<path id="path984" inkscape:connector-curvature="0" class="st9" d="M844,585.6c-0.2-5.2-0.5-12.1-0.7-17.3
						c0.1,3.6,0.5,13.2,0.7,16.9C844,585.4,844,585.5,844,585.6z"/>
				</g>
				<g id="g990">
					<path id="path988" inkscape:connector-curvature="0" class="st10" d="M986.8,561.1c0.2,6.4,0.5,12.8,0.7,19.1
						c0.2,4.9-6.2,10-19.4,14.5c-28.6,9.6-78.1,12.2-110.8,5.8c-17.5-3.4-26.6-8.7-26.8-14.3l-0.7-19.1c0.2,5.7,9.3,10.9,26.8,14.3
						c32.6,6.3,82.2,3.7,110.8-5.8C980.6,571.1,987,566,986.8,561.1z"/>
				</g>
				<g id="g994">
					<path id="path992" inkscape:connector-curvature="0" class="st9" d="M960,546.7c32.6,6.3,35.9,19.2,7.4,28.8
						c-28.5,9.6-78.1,12.2-110.8,5.8c-32.6-6.3-35.9-19.2-7.4-28.8C877.8,543,927.4,540.4,960,546.7z M865.5,578.4
						c27,5.3,68.1,3.1,91.7-4.8c23.6-7.9,20.9-18.6-6.1-23.8c-27-5.3-68.1-3.1-91.7,4.8C835.7,562.5,838.5,573.1,865.5,578.4
						L865.5,578.4z"/>
				</g>
				<path id="path996" inkscape:connector-curvature="0" class="st10" d="M951.1,549.7c27,5.3,29.8,15.9,6.1,23.8
					s-64.7,10.1-91.7,4.8c-27-5.3-29.7-15.9-6.1-23.8C883,546.6,924.1,544.5,951.1,549.7z"/>
				<path id="path998" inkscape:connector-curvature="0" class="st11" d="M859.4,556.9c23.7-7.9,64.7-10.1,91.7-4.8
					c13.4,2.6,20.9,6.6,22,10.9c1.3-5.2-6.1-10.2-22-13.3c-27-5.3-68.1-3.1-91.7,4.8c-11.9,4-17.1,8.7-15.9,13
					C844.4,563.9,849.7,560.2,859.4,556.9z"/>
				<g id="g1002">
					<path id="path1000" inkscape:connector-curvature="0" class="st11" d="M925.1,568.1c2,1.8,0.5,4-4.9,5.8
						c-6.2,2.1-15.7,3-24.2,2.7c-3.1-0.1-6-0.5-8.5-1l-1.4-0.3l-0.5,0.2l-2,0.7l-1.2-0.2l-6.1-1.2l2.5-0.8l-4.4-0.8l-0.5,0.2l-2,0.7
						l-1.2-0.2l-6.1-1.2l2.5-0.8l-4.4-0.8l5.8-2l0.5-0.2l3.2,0.6l1.2,0.2l17.8-6l6.4-2.1l15.3-5.1l-4.4-0.8l5.8-2l0.5-0.2l3.2,0.6
						l1.2,0.2l2-0.7l0.5-0.2l7.3,1.4l-2.6,0.8l3.2,0.6l1.2,0.2l2-0.7l0.5-0.2l7.3,1.4l-2.6,0.8c8.8,1.7,9.7,5.2,2,7.8
						C936.2,567,930.7,567.9,925.1,568.1L925.1,568.1z M898.5,574.1c5,0.3,10.8-0.3,14.5-1.5c4.9-1.7,4.4-3.9-1.3-5l-13.1-2.5
						l-0.5,0.2l-17.3,5.8l13.1,2.5C895.3,573.8,896.8,574,898.5,574.1L898.5,574.1z M919.7,557.9l-14.8,4.9l11.6,2.3
						c1.2,0.2,2.5,0.4,3.8,0.5c4.3,0.2,9.3-0.2,12.5-1.3c4.2-1.4,3.7-3.3-1.1-4.3l-11.6-2.3L919.7,557.9z"/>
				</g>
				<g id="g1006">
					<path id="path1004" inkscape:connector-curvature="0" class="st12" d="M925.1,565.7c2,1.8,0.5,4-4.9,5.8
						c-6.2,2.1-15.7,3-24.2,2.7c-3.1-0.1-6-0.5-8.5-0.9L886,573l-0.5,0.2l-2,0.7l-1.2-0.2l-6.1-1.2l2.5-0.8l-4.4-0.8l-0.5,0.2
						l-2,0.7l-1.2-0.2l-6.1-1.2l2.5-0.8l-4.4-0.8l5.8-2l0.5-0.2l3.2,0.6l1.2,0.2l17.8-6l6.4-2.1l15.3-5.1l-4.4-0.8l5.8-2l0.5-0.2
						l3.2,0.6l1.2,0.2l2-0.7l0.5-0.2l7.3,1.4l-2.6,0.8l3.2,0.6l1.2,0.2l2-0.7l0.5-0.2l7.3,1.4l-2.6,0.8c8.8,1.7,9.7,5.2,2,7.8
						C936.2,564.6,930.7,565.5,925.1,565.7L925.1,565.7z M898.5,571.7c5,0.3,10.8-0.3,14.5-1.5c4.9-1.7,4.4-3.9-1.3-5l-13.1-2.5
						l-0.5,0.2l-17.3,5.8l13.1,2.5C895.3,571.4,896.8,571.6,898.5,571.7L898.5,571.7z M919.7,555.5l-14.8,4.9l11.6,2.3
						c1.2,0.2,2.5,0.4,3.8,0.5c4.3,0.2,9.3-0.2,12.5-1.3c4.2-1.4,3.7-3.3-1.1-4.3l-11.6-2.3L919.7,555.5z"/>
				</g>
				<path id="path1008" inkscape:connector-curvature="0" class="st11" d="M837.3,575.4v18.7c4.5,2.5,11.2,4.7,20,6.4
					c8.8,1.7,18.7,2.8,29.2,3.2v-19.1c-10.7-0.4-20.9-1.5-29.9-3.2C848.2,579.7,841.8,577.7,837.3,575.4z"/>
			</g>
		</g>
		<g id="g1034">
			<g id="g1032" class="st8">
				<g id="g1016">
					<path id="path1014" inkscape:connector-curvature="0" class="st9" d="M851.3,563.1c-0.2-5.2-0.4-12.1-0.7-17.3
						c0.1,3.6,0.5,13.2,0.7,16.9C851.3,562.9,851.3,563,851.3,563.1z"/>
				</g>
				<g id="g1020">
					<path id="path1018" inkscape:connector-curvature="0" class="st10" d="M994,538.6c0.3,6.4,0.5,12.8,0.7,19.1
						c0.2,4.9-6.2,10-19.4,14.5c-28.5,9.6-78.1,12.2-110.8,5.8c-17.5-3.4-26.6-8.7-26.8-14.3l-0.7-19.1c0.2,5.7,9.3,10.9,26.8,14.3
						c32.6,6.3,82.2,3.7,110.8-5.8C987.8,548.6,994.2,543.4,994,538.6z"/>
				</g>
				<g id="g1024">
					<path id="path1022" inkscape:connector-curvature="0" class="st9" d="M967.2,524.2c32.6,6.3,35.9,19.2,7.4,28.8
						s-78.1,12.2-110.8,5.8c-32.6-6.3-35.9-19.2-7.4-28.8C885,520.5,934.6,517.9,967.2,524.2z M872.7,555.9
						c27,5.3,68.1,3.1,91.7-4.8c23.7-7.9,20.9-18.6-6.1-23.8c-27-5.3-68.1-3.1-91.7,4.8C843,539.9,845.7,550.6,872.7,555.9z"/>
				</g>
				<path id="path1026" inkscape:connector-curvature="0" class="st10" d="M958.4,527.2c27,5.3,29.8,15.9,6.1,23.8
					s-64.7,10.1-91.7,4.8c-27-5.3-29.8-15.9-6.1-23.8C890.3,524.1,931.3,521.9,958.4,527.2z"/>
				<path id="path1028" inkscape:connector-curvature="0" class="st11" d="M866.6,534.4c23.7-7.9,64.7-10.1,91.7-4.8
					c13.4,2.6,20.9,6.6,22,10.9c1.3-5.2-6.1-10.2-22-13.3c-27-5.3-68.1-3.1-91.7,4.8c-11.9,4-17.1,8.7-15.9,13
					C851.6,541.4,856.9,537.7,866.6,534.4z"/>
				<path id="path1030" inkscape:connector-curvature="0" class="st11" d="M844.6,552.8v18.7c4.5,2.5,11.2,4.7,20,6.4
					c8.8,1.7,18.7,2.8,29.2,3.2v-19.1c-10.7-0.4-20.9-1.5-29.9-3.2C855.5,557.2,849,555.2,844.6,552.8L844.6,552.8z"/>
			</g>
		</g>
	</g>
</g>
<g id="g1122">
	<path id="path1040" inkscape:connector-curvature="0" class="st24" d="M894,535.9c0,0,55.9,0.1,77.4,0.4
		c14.9,0.2,16.3-21,10.4-24.3c-17.9-9.7-73.6-14.7-73.6-14.7l-37.9,34.8C870.3,532.2,872.4,532.2,894,535.9L894,535.9z"/>
	<path id="path1042" inkscape:connector-curvature="0" class="st25" d="M946.6,421.9c0,0,14.4-4,20.6,14.7
		c9.6,28.8,8.8,55.2,7.4,60.8c-0.6,2.6-2.5,11.5-18.5,11.9c-6.5,0.1-3.9-13.8-3.9-13.8s-4.2-11.8-8.6-31.9
		C939.2,443.6,946.6,421.9,946.6,421.9z"/>
	<path id="path1044" inkscape:connector-curvature="0" class="st26" d="M958,423.6l-36.8-11.9l-27.9-1.9l-30.6,9.3
		c0,0-10,6.9-0.7,29c9.3,22.2,5.7,56.8,5.7,56.8l78.8,2.5c0,0,1.5-32.1,6.7-64.2C954.4,436.1,954.6,427.7,958,423.6L958,423.6z"/>
	<path id="path1046" inkscape:connector-curvature="0" class="st25" d="M903.9,505.9h4c4.2-31,4-62.9-0.6-93.8
		c-1.2,0.7-2.4,1.4-3.6,2.2C904.7,445.8,903,477.4,903.9,505.9z"/>
	<g id="g1050">
		<path id="path1048" inkscape:connector-curvature="0" class="st21" d="M919.6,420.3c-0.5,4.3-4,8-7.7,8.1c-3.5,0-6.9,0-10.4,0
			c-3.7-0.2-7.1-3.9-7.7-8.1c-0.8-7-1.7-14-2.6-21.1c-0.6-4.2,1.9-12.7,7.5-15.2c5.1-2.2,10.9-2.2,15.9,0c5.5,2.5,8.1,11,7.5,15.2
			C921.3,406.3,920.4,413.3,919.6,420.3L919.6,420.3z"/>
	</g>
	<polygon id="polygon1052" class="st25" points="906.3,429 899.7,439.8 887.6,424.7 889.5,416.7 893.4,413.5 893.5,419.5 	"/>
	<polygon id="polygon1054" class="st25" points="907.1,429 913.7,439.8 925,425.7 923.1,417.1 920.3,413.4 919.2,420.5 	"/>
	<g id="g1070">
		<path id="path1056" inkscape:connector-curvature="0" class="st17" d="M905.1,370.7c-2.9,0-5.5,1.5-7,3.8h-2.9
			c-3.6,0-6.5,2.9-6.5,6.5v16h4.6v-6.5c0-2.5,2-4.5,4.5-4.5h2.7h-4.2h2.8c4.6,0,8.3-3.7,8.3-8.3v-6.8L905.1,370.7z"/>
		<path id="path1058" inkscape:connector-curvature="0" class="st21" d="M897.1,402.8c0,2.2-1.8,4-3.9,4h-0.3c-2.2,0-3.9-1.8-3.9-4
			V398c0-2.2,1.8-4,3.9-4h0.3c1.6,0,3,1,3.6,2.3L897.1,402.8z"/>
		<path id="path1060" inkscape:connector-curvature="0" class="st17" d="M901.6,377.1v-6.3h2.6h6.9h4.2c4.6,0,8.3,3.7,8.3,8.3v6.3
			H921h-6.9h-4.2C905.3,385.4,901.6,381.7,901.6,377.1z"/>
		<path id="path1062" inkscape:connector-curvature="0" class="st22" d="M922.4,408.9c0,3.3-2.5,8.9-6.7,10.7
			c-5.7,2.3-12.4,2.3-18.2,0c-4.2-1.8-6.7-7.4-6.8-10.7c0-9.4,0-18.8,0-28.2c0-3.3,3.3-6.1,7.4-6.2c5.6,0,11.2,0,16.8,0
			c4.1,0.1,7.4,2.9,7.4,6.2C922.4,390.1,922.4,399.5,922.4,408.9z"/>
		<path id="path1064" inkscape:connector-curvature="0" class="st17" d="M909.9,370.7c2.9,0,5.5,1.5,7,3.8h2.9
			c3.6,0,6.5,2.9,6.5,6.5v16h-4.5v-6.5c0-2.5-2-4.5-4.5-4.5H917h1.6h-7.4c-4.6,0-8.3-3.7-8.3-8.3v-6.8L909.9,370.7z"/>
		<path id="path1066" inkscape:connector-curvature="0" class="st22" d="M918,398c0-2.2,1.8-4,3.9-4h0.3c2.2,0,3.9,1.8,3.9,4v4.8
			c0,2.2-1.8,4-3.9,4h-0.3c-1.6,0-3-1-3.6-2.4L918,398z"/>
		<path id="path1068" inkscape:connector-curvature="0" class="st17" d="M902.9,378.7c0.1-0.5,0.2-1.1,0.2-1.6v-6.3h-2.6h-3.3
			c-4.6,0-8.3,3.7-8.3,8.3v6.3h1.7h0.9h3.3c0.6,0,1.2-0.1,1.7-0.2C897.1,382,899.7,379.4,902.9,378.7z"/>
	</g>
	<path id="path1072" inkscape:connector-curvature="0" class="st23" d="M829.8,642.8c-0.9,1-0.2,3.8-0.2,3.8s15,1.7,19.9,0.5
		c1.3-0.3,3.4-1.4,5.4-2.5c0.3-0.2,0.9-1.3,1.3-1.5c0.6-0.4,0.9,0.2,1.4-0.1c1.3-0.8,2.3-1.5,2.3-1.6c1.3-6.9-0.4-9.7-0.4-9.7
		s-12.8-4.3-15.2-1.3C838.5,637.4,831.7,640.5,829.8,642.8L829.8,642.8z"/>
	<path id="path1074" inkscape:connector-curvature="0" class="st23" d="M970.3,635.3l1,11.4l11.4,1.1c0,0,0.8-1.5,1.8-1.4
		c0.8,0.1,1.7,1.8,2.8,1.9c2.4,0.2,5,0.5,6.1,0.6c2.1,0.2,22.8,2.2,22.8,2.2s0.8-2.3,0.2-3.2c-0.3-0.5-2.1-1.4-3.3-1.8
		c-5.7-2.2-22-9-24.4-14.9C985.8,623.9,970.3,635.3,970.3,635.3L970.3,635.3z"/>
	<g id="g1078">
		<path id="path1076" inkscape:connector-curvature="0" class="st22" d="M953.1,491.4l-38.4,15.7c0,0,27.3,3.9,44.3,0.4
			C970.5,505.2,953.7,490.9,953.1,491.4z"/>
	</g>
	<path id="path1080" inkscape:connector-curvature="0" class="st24" d="M865.8,515.4c0,0-3.7,35.1-3.2,53.7
		c0.4,14,0.4,40.8-2.9,63.7c-0.2,1.4-18.1,0.3-18.1,0.3s-6.4-87-8.3-101.4C831.4,517.4,837,507,865.8,515.4L865.8,515.4z"/>
	<path id="path1082" inkscape:connector-curvature="0" class="st27" d="M978.3,523.8c0,0-5.8,9.1-21.6,11.3
		C951,535.9,966,637,966,637l23.3-7.5l-4.5-111.8L978.3,523.8z"/>
	<path id="path1084" inkscape:connector-curvature="0" class="st27" d="M913.9,535.1c0,0-30.5,4.3-50.9,6.5
		c-7.5,0.8-13.9-20.1-14.8-21c-5.5-5.7-10.8-5-10.7-5.2c4.4-4.8,27.3-9.2,51.2-14.8c23.9-5.6,27.5-2.1,27.5-2.1L913.9,535.1z"/>
	<path id="path1086" inkscape:connector-curvature="0" class="st24" d="M888.7,500.5c-23.9,5.6-46.8,10-51.2,14.8
		c-0.2,0.2,5.2-0.5,10.7,5.2c0.2,0.3,1.6,7,2.6,9.4c-3.9-7,52.3-26.8,64.4-32C912.9,497.2,906.3,496.4,888.7,500.5z"/>
	<polygon id="polygon1088" class="st27" points="862.4,534.8 860.1,603.2 857.8,619 857.5,603.2 858,593.3 852.6,578 849.7,542.4 
		853.9,543.9 853.4,528.3 	"/>
	<path id="path1090" inkscape:connector-curvature="0" class="st24" d="M977.5,515.3l5.7,1.6l2.1,82.1l-12,29.3l5.7-20l-2.3-41.3
		c0,0-8.3,20-8.3,19c0-1,7-43.4,7-43.4s-7.8,6.5-7,6.2C969.2,548.6,973.1,519.2,977.5,515.3L977.5,515.3z"/>
	<path id="path1092" inkscape:connector-curvature="0" class="st26" d="M879.6,419.4c0,0-12.3-9.6-24.3,8.2
		c-17.6,26.2-25.3,54-28,62c-2.2,6.2-1,23.6,6.2,30.8c1.7,1.7,12.1,0.3,12.1,0.3l6.8-4.7l-2.8-5.5l-0.2-4.3c0,0,8.7-21,19.4-40.9
		C879.6,445.4,879.6,419.4,879.6,419.4L879.6,419.4z"/>
	<g id="g1102">
		<path id="path1094" inkscape:connector-curvature="0" class="st22" d="M849.6,499.3l39.9,2.1c0,0-38.4,17.6-39.7,14.6
			C842.6,498.8,849.6,499.3,849.6,499.3z"/>
		<g id="g1100">
			<path id="path1096" inkscape:connector-curvature="0" class="st22" d="M871.5,498.1c2.3-1.1,2.1-1.1,2.1-1.1s2.1,2.5,5.2,3
				c1.5,0.2,6.5,0.3,6.5,0.3l7.3,0.2l3.4-0.2c0,0,1.9-0.3,2.4,0.1c1.5,1,0.2,1.7,0.2,1.7l-13.2,1.9l12.6,1.6c0,0,1.6,0.5,1.7,1.3
				c0.1,0.8-0.5,0.8-0.5,0.8l-14.7,1.6l6.4,1.5c0,0,1.5,0.5,1.7,1.3c0.1,0.9,0.2,1.2,0.2,1.2l-13.5-1.3
				C879.5,511.9,869.2,499.2,871.5,498.1L871.5,498.1z"/>
			<path id="path1098" inkscape:connector-curvature="0" class="st22" d="M886.1,506.2l8.8,1.6c0,0,2,0.1,2.9,0.8
				c1,0.8,0.4,1.7,0.4,1.7l-13.5-1.1L886.1,506.2z"/>
		</g>
	</g>
	<g id="g1116">
		<path id="path1104" inkscape:connector-curvature="0" class="st28" d="M941.5,513.2C941.5,513.2,941.5,513.1,941.5,513.2v-2.6H863
			v2.5c0,0,0,0,0,0.1l0.3,0.5c1.3,2.2,3.7,2.6,6.5,2.6h65c2.8,0,5.1-0.4,6.5-2.6L941.5,513.2z"/>
		<g id="g1108">
			<rect id="rect1106" x="876.3" y="511.2" class="st29" width="52" height="1.8"/>
		</g>
		<g id="g1114">
			<path id="path1110" inkscape:connector-curvature="0" class="st30" d="M941.5,510.9l0.2-51.5c0-1.4-1.1-2.5-2.4-2.5h-73.5
				c-1.3,0-2.5,1.1-2.5,2.5l-0.2,51.5H941.5z"/>
			<path id="path1112" inkscape:connector-curvature="0" class="st28" d="M907.1,483.9c0,2.6-2.2,4.8-4.8,4.8
				c-2.6,0-4.8-2.1-4.7-4.8c0-2.6,2.2-4.8,4.8-4.8C905,479.1,907.1,481.3,907.1,483.9z"/>
		</g>
	</g>
	<polygon id="polygon1118" class="st25" points="856.3,498.7 854.3,518.1 844.4,519.2 841.7,501.8 846.2,497.1 	"/>
	<polygon id="polygon1120" class="st26" points="948.1,492 957.1,509.2 966.6,506.7 967.7,500.3 954.9,488.8 	"/>
</g>
<g id="g1144">
	<g id="g1142">
		<polygon id="polygon1124" class="st31" points="342.7,195.6 421,164.2 360.1,197.4 		"/>
		<polygon id="polygon1126" class="st32" points="365.7,212.4 421,164.2 360.1,197.4 		"/>
		<polygon id="polygon1128" class="st33" points="342.9,195.5 378,187.7 361,197 		"/>
		<polygon id="polygon1130" class="st15" points="342.7,195.6 377.1,188.2 360.1,197.4 		"/>
		<polygon id="polygon1132" class="st10" points="378.8,200.4 378,187.7 360.1,197.4 365.7,212.4 		"/>
		<polygon id="polygon1134" class="st34" points="365.7,212.4 421,164.2 372.8,200.6 		"/>
		<polygon id="polygon1136" class="st31" points="397.3,218.8 421,164.2 372.8,200.6 		"/>
		<polygon id="polygon1138" class="st33" points="397.3,218.8 384.5,191.8 373.2,200.2 		"/>
		<polygon id="polygon1140" class="st15" points="397.3,218.8 384.1,192.2 372.8,200.6 		"/>
	</g>
</g>
<g id="g1158">
	<g id="g1148">
		<path id="path1146" inkscape:connector-curvature="0" class="st13" d="M207.1,429.7c-0.1,0-1.4-0.4-3.8-1.2l0.4-1.3
			c2.4,0.8,3.7,1.1,3.7,1.1L207.1,429.7z"/>
	</g>
	<g id="g1152">
		<path id="path1150" inkscape:connector-curvature="0" class="st13" d="M195.9,425.8c-2.4-1-4.8-2-7.2-3.1l0.5-1.2
			c2.4,1.1,4.8,2.1,7.2,3.1L195.9,425.8z M181.5,419.3c-2.3-1.2-4.7-2.5-6.9-3.7l0.7-1.2c2.3,1.3,4.6,2.5,6.9,3.7L181.5,419.3z
			 M167.9,411.5c-2.2-1.4-4.4-2.9-6.5-4.3l0.8-1.1c2.1,1.5,4.3,2.9,6.5,4.3L167.9,411.5z M155,402.5c-2.1-1.6-4.1-3.3-6.1-4.9l0.8-1
			c2,1.7,4,3.3,6.1,4.9L155,402.5z M143,392.4c-1.9-1.8-3.8-3.6-5.6-5.5l0.9-0.9c1.8,1.8,3.7,3.7,5.6,5.4L143,392.4z M132,381.2
			c-1.7-2-3.4-4-5.1-6l1-0.8c1.6,2,3.3,4,5,6L132,381.2z M122.1,368.9c-1.5-2.1-3-4.3-4.4-6.5l1.1-0.7c1.4,2.2,2.9,4.3,4.4,6.4
			L122.1,368.9z M113.6,355.8c-1.3-2.3-2.6-4.6-3.8-6.9l1.2-0.6c1.2,2.3,2.5,4.6,3.7,6.8L113.6,355.8z M106.4,341.8
			c-1.1-2.4-2.1-4.8-3.1-7.2l1.2-0.5c1,2.4,2,4.8,3,7.2L106.4,341.8z M100.6,327.2c-0.8-2.5-1.6-5-2.4-7.5l1.3-0.4
			c0.7,2.5,1.5,5,2.4,7.4L100.6,327.2z M198.2,320.7L198.2,320.7c-1.2,0-2.3-0.1-3.5-0.2l0.1-1.3c1.1,0.1,2.2,0.2,3.3,0.2
			c1.4,0,2.9-0.1,4.3-0.3l0.2,1.3C201.2,320.6,199.7,320.7,198.2,320.7z M210.4,318.7l-0.4-1.3c2.4-0.7,4.8-1.7,7.2-2.8l0.6,1.2
			C215.3,317,212.9,318,210.4,318.7z M187,318.6c-2.6-1.1-4.8-2.6-6.7-4.5l0.9-0.9c1.7,1.7,3.8,3.1,6.3,4.2L187,318.6z M96.2,312.1
			c-0.5-1.9-0.9-3.8-1.3-5.7l-0.4-2l1.3-0.3l0.4,2c0.4,1.9,0.8,3.8,1.3,5.6L96.2,312.1z M224.7,312l-0.7-1.1
			c2.1-1.3,4.2-2.8,6.3-4.5l0.8,1C229,309.1,226.8,310.6,224.7,312z M175.9,307.4c-0.8-2.3-1.3-4.7-1.3-7.2c0-0.2,0-0.5,0-0.7l1.3,0
			c0,0.2,0,0.5,0,0.7c0,2.4,0.4,4.7,1.2,6.8L175.9,307.4z M237.1,302.3l-0.9-1c1.8-1.7,3.7-3.6,5.5-5.5l1,0.9
			C240.9,298.7,239,300.6,237.1,302.3L237.1,302.3z M92.9,296.8c-0.5-2.7-1-5.3-1.4-7.7l1.3-0.2c0.4,2.4,0.9,5,1.4,7.7L92.9,296.8z
			 M177.4,292l-1.3-0.4c0.3-1,0.7-2,1.2-2.9c0.7-1.4,1.5-2.8,2.4-4.2l1.1,0.8c-0.9,1.3-1.6,2.6-2.3,4
			C178.1,290.2,177.8,291.1,177.4,292L177.4,292z M247.9,290.8l-1-0.8c1.6-2,3.2-4,4.8-6.1l1.1,0.8
			C251.1,286.8,249.5,288.9,247.9,290.8L247.9,290.8z M90.3,281.3c-0.4-2.7-0.7-5.3-1-7.8l1.3-0.1c0.3,2.5,0.6,5.1,1,7.8L90.3,281.3
			z M186,279.6l-0.9-1c1.9-1.6,4-3.2,6.5-4.6l0.7,1.1C189.9,276.6,187.8,278.1,186,279.6L186,279.6z M257.2,278.2l-1.1-0.7
			c1.4-2.1,2.8-4.3,4.2-6.6l1.1,0.7C260.1,273.9,258.6,276.1,257.2,278.2z M199.2,271.8l-0.5-1.2c2.3-1,4.7-1.9,7.4-2.8l0.4,1.3
			C203.8,269.9,201.4,270.8,199.2,271.8L199.2,271.8z M213.9,266.8l-0.3-1.3c2.4-0.6,4.9-1.3,7.6-1.9l0.3,1.3
			C218.8,265.6,216.3,266.2,213.9,266.8L213.9,266.8z M88.7,265.7c-0.2-2.7-0.3-5.3-0.3-7.8l1.3,0c0,2.5,0.2,5.2,0.3,7.8L88.7,265.7
			z M265.4,264.8l-1.2-0.6c1.2-2.2,2.5-4.5,3.7-6.9l1.2,0.6C267.8,260.2,266.6,262.6,265.4,264.8L265.4,264.8z M229.1,263.4
			l-0.3-1.3c2.4-0.5,4.9-0.9,7.7-1.4l0.2,1.3C234,262.4,231.5,262.9,229.1,263.4z M244.5,260.6l-0.2-1.3c2.5-0.4,5.1-0.9,7.7-1.3
			l0.2,1.3C249.7,259.7,247.1,260.2,244.5,260.6z M260,258l-0.2-1.3c2.6-0.4,5.1-0.9,7.7-1.3l0.2,1.3
			C265.1,257.1,262.6,257.6,260,258z M275.4,255.3l-0.3-1.3c2.7-0.5,5.2-1,7.7-1.5l0.3,1.3C280.7,254.3,278.2,254.8,275.4,255.3z
			 M290.8,252.1l-0.3-1.3c2.6-0.6,5.2-1.2,7.6-1.9l0.3,1.3C296,250.8,293.4,251.5,290.8,252.1z M272.5,250.8l-1.2-0.6
			c1.1-2.3,2.2-4.7,3.2-7.1l1.2,0.5C274.7,246.1,273.6,248.5,272.5,250.8L272.5,250.8z M89.7,250l-1.3,0c0.1-2.6,0.2-5.3,0.4-7.9
			l1.3,0.1C89.9,244.8,89.8,247.4,89.7,250L89.7,250z M306,248.1l-0.4-1.3c2.5-0.8,5-1.6,7.4-2.4l0.4,1.3
			C311.1,246.5,308.6,247.3,306,248.1z M320.9,243l-0.5-1.2c2.5-1,4.9-2,7.2-3.1l0.6,1.2C325.8,240.9,323.4,242,320.9,243L320.9,243
			z M278.7,236.4l-1.2-0.5c1-2.4,1.9-4.8,2.8-7.3l1.2,0.5C280.7,231.6,279.7,234,278.7,236.4z M335.1,236.3l-0.6-1.2
			c2.3-1.3,4.6-2.6,6.7-4l0.7,1.1C339.7,233.7,337.5,235,335.1,236.3L335.1,236.3z M91,234.5l-1.3-0.2c0.4-2.6,0.8-5.2,1.3-7.8
			l1.3,0.3C91.8,229.4,91.3,231.9,91,234.5L91,234.5z M284.2,221.7l-1.3-0.4c0.8-2.5,1.6-5,2.3-7.4l1.3,0.4
			C285.9,216.7,285.1,219.2,284.2,221.7L284.2,221.7z M94,219.2l-1.3-0.3c0.6-2.5,1.4-5,2.2-7.6l1.3,0.4
			C95.3,214.2,94.6,216.7,94,219.2L94,219.2z M288.5,206.6l-1.3-0.3c0.5-2.6,1-5.1,1.4-7.7l1.3,0.2C289.5,201.4,289,204,288.5,206.6
			L288.5,206.6z M98.6,204.3l-1.2-0.5c0.9-2.5,1.8-4.9,2.8-7.3l1.2,0.5C100.4,199.4,99.5,201.9,98.6,204.3L98.6,204.3z M290.7,191
			l-1.3-0.1c0.2-2.4,0.3-4.8,0.3-7.2v-0.6l1.3,0v0.6C291,186.1,290.9,188.6,290.7,191z M104.4,189.9l-1.2-0.5
			c1.1-2.4,2.2-4.8,3.3-7.1l1.2,0.6C106.6,185.1,105.5,187.5,104.4,189.9L104.4,189.9z M111.4,175.9l-1.2-0.6
			c1.3-2.3,2.6-4.6,3.9-6.8l1.1,0.7C114,171.4,112.6,173.6,111.4,175.9L111.4,175.9z M289.3,175.4c-0.2-2.6-0.6-5.2-1.1-7.7l1.3-0.2
			c0.5,2.5,0.8,5.2,1.1,7.8L289.3,175.4z M119.5,162.6l-1.1-0.7c1.5-2.2,3-4.3,4.6-6.4l1.1,0.8C122.5,158.3,121,160.5,119.5,162.6
			L119.5,162.6z M286.4,160.2c-0.7-2.5-1.6-5-2.6-7.3l1.2-0.5c1,2.4,1.9,4.9,2.6,7.5L286.4,160.2z M128.9,150.2l-1-0.9
			c1.7-2,3.5-4,5.2-5.9l1,0.9C132.3,146.2,130.6,148.2,128.9,150.2z M280.5,145.9c-1.2-2.3-2.6-4.5-4.1-6.6l1.1-0.8
			c1.5,2.1,2.9,4.4,4.1,6.7L280.5,145.9z M139.5,138.8l-0.9-1c1.9-1.8,3.9-3.6,5.9-5.2l0.8,1C143.4,135.3,141.4,137.1,139.5,138.8
			L139.5,138.8z M271.7,133.2c-1.7-1.9-3.5-3.8-5.4-5.5l0.9-1c1.9,1.8,3.8,3.7,5.5,5.6L271.7,133.2z M151.5,128.9l-0.8-1.1
			c2.1-1.6,4.3-3.1,6.5-4.5l0.7,1.1C155.7,125.8,153.6,127.3,151.5,128.9z M260.3,122.7c-2.1-1.5-4.3-2.9-6.5-4.2l0.7-1.1
			c2.3,1.3,4.5,2.8,6.6,4.3L260.3,122.7z M164.6,120.5l-0.6-1.2c2.3-1.3,4.7-2.5,7-3.5l0.5,1.2C169.2,118.1,166.9,119.2,164.6,120.5
			z M246.9,114.9c-2.3-1-4.8-2-7.2-2.8l0.4-1.3c2.5,0.8,5,1.8,7.3,2.9L246.9,114.9z M178.7,114l-0.5-1.2c2.5-0.9,5-1.7,7.5-2.5
			l0.4,1.3C183.6,112.3,181.1,113.1,178.7,114L178.7,114z M232.2,110c-2.5-0.6-5.1-1-7.6-1.4l0.2-1.3c2.6,0.4,5.2,0.8,7.8,1.4
			L232.2,110z M193.6,109.7l-0.3-1.3c2.6-0.5,5.2-1,7.8-1.3l0.2,1.3C198.8,108.8,196.2,109.2,193.6,109.7z M216.8,107.9
			c-1.4-0.1-2.9-0.1-4.3-0.1c-1.1,0-2.3,0-3.5,0.1l0-1.3c1.2,0,2.4-0.1,3.5-0.1c1.5,0,2.9,0,4.3,0.1L216.8,107.9z"/>
	</g>
	<g id="g1156">
		<path id="path1154" inkscape:connector-curvature="0" class="st13" d="M348.5,227.5l-0.8-1c1-0.8,2-1.6,3-2.5l0.9,1
			C350.6,225.9,349.6,226.7,348.5,227.5L348.5,227.5z"/>
	</g>
</g>
<g id="g1230">
	<g id="g1220">
		<path id="path1160" inkscape:connector-curvature="0" class="st35" d="M299.1,406.7c5.6,11.5,19.6,16.1,31.3,10.4
			c11.7-5.7,16.7-19.6,11.1-31c-5.6-11.5-19.6-16.1-31.3-10.4S293.5,395.3,299.1,406.7L299.1,406.7z"/>
		<path id="path1162" inkscape:connector-curvature="0" class="st35" d="M287.2,436.1c7,14.5,24.7,20.3,39.5,13.1
			c14.8-7.2,21-24.7,14-39.2c-7-14.5-24.7-20.3-39.5-13.2C286.5,404.1,280.2,421.7,287.2,436.1L287.2,436.1z"/>
		<g id="g1178">
			<g id="g1174">
				<g id="g1170">
					<path id="path1164" inkscape:connector-curvature="0" class="st21" d="M312,468.1c0,0,0.9,3.9-17.7,8.6c-18.6,4.7-47,7-47,7
						l41.9-14.9C289.1,468.8,305.4,463.9,312,468.1L312,468.1z"/>
					<path id="path1166" inkscape:connector-curvature="0" class="st21" d="M262.2,481.3c-8.8,2.5-11.3,8-14.4,10.3
						c-3.1,2.4-6,5.5-6,5.4c0.9-4.3,3.7-5.2,4.8-6.8c1.1-1.6,0.9-0.9-2.3-0.2c-1.8,0.4-4,4.4-5.8,6.8c-1.5,2-2.7,2.5-2.7,2.5
						s1.4-3.8,3.5-7.2c2.6-4.1,6.2-7.9,7.1-8.6c1.7-1.3,7.5-3.2,11.8-3.8C263.2,479,268.5,479.5,262.2,481.3z"/>
					<path id="path1168" inkscape:connector-curvature="0" class="st21" d="M247,483.6c0,0-6.2,3.6-7.2,4.9c-0.6,0.8-3,5.4-3,5.4
						s2.4-1.1,3.5-2.9C241.3,489.2,247,483.6,247,483.6z"/>
				</g>
				<path id="path1172" inkscape:connector-curvature="0" class="st5" d="M301.6,462.4c0,0,17.3-3.8,19,6.5c1,5.9-2.3,9-7.5,10.1
					c-9.7,2-20.9,3.7-20.9,3.7l-9.3-14.2L301.6,462.4z"/>
			</g>
			<path id="path1176" inkscape:connector-curvature="0" class="st5" d="M300.7,453.8l4.8-47.2c0,0-0.3-12.4,4.1-12.1
				c6.4,0.4,7.6,11,8.2,14.8c1.1,7.8,2.8,10.9,2.7,30.5c-0.1,12.1,0.8,25.8,0,34c-0.5,5.6-6-0.6-11.7-1.2
				C298.1,471.7,300.7,453.8,300.7,453.8L300.7,453.8z"/>
		</g>
		<polygon id="polygon1180" class="st22" points="148.3,618.5 172.1,612.9 184.9,581.1 197,586.1 181.3,620.3 159.4,620.8 		"/>
		<path id="path1182" inkscape:connector-curvature="0" class="st23" d="M178.8,625.7l-2.9-0.7l-1.6-3.5l-17.6,0.8l-14.2-2.6
			c0,0,0.3-1.1,1-1.5c2.5-1.3,13.5-2,13.5-2s-1.2,3.1,0.1,3.7s14.9-0.2,18.1-0.7c5.6-0.8,8.5-2.2,8.3-1.5
			C183.1,618.8,178.8,625.7,178.8,625.7L178.8,625.7z"/>
		<path id="path1184" inkscape:connector-curvature="0" class="st25" d="M284.4,516.5l-51.6-1.4l-38.4,84.1l-15.9-6.3L216,491.8
			c0,0,3-6.4,18.5-6.4c15.2,0,76.3-1.7,83.3,0.3C334.3,490.2,281.5,502.6,284.4,516.5L284.4,516.5z"/>
		<path id="path1186" inkscape:connector-curvature="0" class="st35" d="M321,376.7c5.6,11.5,19.6,16.1,31.3,10.4
			c11.7-5.7,16.7-19.6,11.1-31c-5.6-11.4-19.6-16.1-31.3-10.4C320.4,351.4,315.5,365.3,321,376.7L321,376.7z"/>
		<path id="path1188" inkscape:connector-curvature="0" class="st35" d="M297,369.3c4.3,8.8,14.9,12.4,23.7,8.2l0.3-9.5
			c8.8-4.3,12.5-14.9,8.2-23.7l-2.9-6c-4.3-8.8-14.9-12.5-23.7-8.2l-4,1.9c-8.8,4.3-12.5,14.9-8.2,23.7L297,369.3z"/>
		<path id="path1190" inkscape:connector-curvature="0" class="st22" d="M292,342.8c0.7,1.5,1.6,2.9,2.6,4.3
			c6.6,9.4,16.6,14.2,23.8,11.8c2.5,4.5,5.4,8.2,8.3,11.2c3.2,3.4,10,5.4,10,5.4c4.6,6.6,2,25.5-14.5,27.5c-10,1.2-7.9-9.3-4.4-15.9
			c1.6-3.1,3.2-6.6,2.8-8.3c-1.3-6-3.5-6.9-7-8.9c-6-2.6-11.5,0.1-11.5,0.1c-0.5,0.3-1.1,0.3-1.6,0.1c-0.8-0.9-1.6-1.9-2.1-3.1
			l-6.4-13.1C290.1,350.3,290.3,346.2,292,342.8L292,342.8z"/>
		<path id="path1192" inkscape:connector-curvature="0" class="st19" d="M343.9,499.9c0,0-7.6,1.6-9.7,2.3c-2.8,1-11-0.3-11-0.3
			s-1-40.5-3-54.7c-2-14.1-5.6-18-5.6-22.4c0-7.1,0.6-8.7,1.9-14.2c1.3-5.5-2.4-12.8-1.2-11.4c2,2.2,9.5,5.7,16.5-2
			C333,396,343.9,499.9,343.9,499.9L343.9,499.9z"/>
		<path id="path1194" inkscape:connector-curvature="0" class="st3" d="M317.1,382.9c0,0-10.3,10.4-9.9,13.8
			c0.4,3.4-0.6,17.7,1.7,32.9c2.4,15.2,4.3,19,4.6,30.1c0.4,11.1-2.2,13.6-1.3,27.3c0.7,10.7,2.4,20.1,2.4,20.1s4.8,1.4,8.5-2.6
			c3.7-4,2.3-41.1,1-50.3c-1.3-9.2-6.7-33.2-6.4-39.5c0.3-6.4,2.4-21.6,3.5-23.6C324.2,386,317.9,383.4,317.1,382.9L317.1,382.9z"/>
		<path id="path1196" inkscape:connector-curvature="0" class="st5" d="M317,381.9c0,0,0.6,0.9,1.3,1.4c1.3,0.9,3,2.7,3,2.7
			s-2.1-1-2.8,0.8c-1,2.2-1.6,7.1-1.6,7.1s-3.8-6.3-2.9-8.3C315.6,382.1,317,381.9,317,381.9z"/>
		<path id="path1198" inkscape:connector-curvature="0" class="st35" d="M331.1,406.6c4,12.7,17.7,19.7,30.6,15.7
			c13-4,20.3-17.6,16.3-30.3c-3.9-12.7-17.7-19.7-30.6-15.7C334.5,380.3,327.2,393.9,331.1,406.6L331.1,406.6z"/>
		<polygon id="polygon1200" class="st22" points="247.9,593.5 247.1,617.5 242.2,623.2 229.2,630.7 219.6,629 236.6,616.3 
			237.8,591.2 		"/>
		<path id="path1202" inkscape:connector-curvature="0" class="st23" d="M246.4,622.8l-4.4,3.1l-1.3-1.1l-12.1,7.6
			c0,0-11,2.9-13.1,0.4c-0.7-0.8,1.1-2.1,3.5-4c1.9-1.4,3.1-2,3.1-2s0.5,1.9,4.8,2.6c1.4,0.2,10-5.5,13-6.9c5.3-2.7,7.4-6.4,7.7-6
			C248.3,617.4,246.4,622.8,246.4,622.8L246.4,622.8z"/>
		<path id="path1204" inkscape:connector-curvature="0" class="st26" d="M350,467.3l-6.2,14.7l-10.7,1.3l-86.3,5.5
			c0,0-7.7-2.4-12.6,9.8c-7,17.4,2.2,104.3,2.2,104.3l12.8-0.2l6.9-82c0,0,82.9,14.5,106.8,7.2c9.2-2.8,16.2-19,14.9-35.4
			c-1-12.8-9.6-24.6-9.6-24.6L350,467.3z"/>
		<path id="path1206" inkscape:connector-curvature="0" class="st3" d="M338.2,498.1c0,0-4-36.2-6.3-53.3c-2.3-17.1-1.8-45.8-2.3-50
			c-0.5-4.1-2.7-10-2.7-10s4.2-9.3,9.6-9c4.8,0.3,19.9,5.3,27.2,8.3c5.1,2.1,2.4,59.7,2.9,62.8c1.6,11,7,23.5,10.5,32.2
			c2.8,6.9,4.9,17.2,4.9,17.2S354.5,492.9,338.2,498.1L338.2,498.1z"/>
		<path id="path1208" inkscape:connector-curvature="0" class="st5" d="M335.6,372.9l-4.1,4.6c0,0-5.7,7.8-3.8,6.7
			c2.3-1.4,5,6.8,5,6.8l7.6-15.5L335.6,372.9z"/>
		<g id="g1216">
			<path id="path1210" inkscape:connector-curvature="0" class="st22" d="M368.6,460.8c0,0,6.3,4.5-17.5,6.9
				c-23.8,2.5-59.4,0.7-59.4,0.7l54.5-10.3C346.2,458.1,361.3,455.1,368.6,460.8L368.6,460.8z"/>
			<path id="path1212" inkscape:connector-curvature="0" class="st22" d="M310.6,468.1c-11.3,1.5-15.5,7.3-19.7,9.5
				c-4.3,2.2-8.4,5.2-8.4,5.2c1.9-4.7,5.5-5.3,7.2-7c1.6-1.7,1.3-0.9-2.8-0.6c-2.3,0.2-5.8,4.3-8.4,6.8c-2.3,2.1-3.8,2.4-3.8,2.4
				s2.4-4.1,5.7-7.6c4-4.2,9.2-7.9,10.4-8.6c2.3-1.2,9.8-2.4,15.3-2.5C312.2,465.6,318.7,467,310.6,468.1L310.6,468.1z"/>
			<path id="path1214" inkscape:connector-curvature="0" class="st22" d="M291.4,468.3c0,0-8.4,3.1-9.8,4.4c-1,0.9-4.8,5.7-4.8,5.7
				s3.2-0.9,4.8-2.7C283.3,473.7,291.4,468.3,291.4,468.3L291.4,468.3z"/>
		</g>
		<path id="path1218" inkscape:connector-curvature="0" class="st5" d="M354.5,454.1l-7.8-52.5c0,0,1.9-10.8,5.3-14.5
			c4-4.4,11.6-3.1,11.6-3.1s8.9,7.3,9.5,48.9c0.4,28.5,3.1,40.2-9.2,41.4c-11.4,1.2-24.5,1.9-24.5,1.9l-8.7-17.2L354.5,454.1z"/>
	</g>
	<g id="g1228">
		<rect id="rect1222" x="214.5" y="482.5" class="st32" width="75.3" height="1.5"/>
		<path id="path1224" inkscape:connector-curvature="0" class="st32" d="M256.6,482.4c0,1.2-0.8,2.2-1.9,2.2H216
			c-1,0-2.5-0.8-3.8-3.8l-19.1-34.9c0-1.5,1.2-2.4,2.2-2.2l39.6,1.2c1,0.3,1.9,1,2.5,2.6L256.6,482.4z"/>
		<path id="path1226" inkscape:connector-curvature="0" class="st34" d="M251.9,484h0.4H290c-1.3,0.7-3.6,1.2-6.2,1.2h-31.5h-0.4
			h-31.5c-2.6,0-4.8-0.5-6.2-1.2H251.9z"/>
	</g>
</g>
<path id="path1232" inkscape:connector-curvature="0" class="st3" d="M1201.6,639.4c0,10.4-36,18.8-80.3,18.8
	c-44.4,0-80.3-8.4-80.3-18.8c0-10.4,36-18.8,80.3-18.8C1165.6,620.6,1201.6,629,1201.6,639.4L1201.6,639.4z"/>
<g id="g1248">
	<g id="g1236">
		<path id="path1234" inkscape:connector-curvature="0" class="st13" d="M1106.7,494.2c-40.8-5.4-78.4,23.3-83.8,64.1
			c-5.4,40.8,23.3,78.4,64.1,83.8c40.8,5.4,78.4-23.3,83.8-64.1C1176.3,537.2,1147.5,499.6,1106.7,494.2z"/>
	</g>
	<g id="g1246">
		<path id="path1238" inkscape:connector-curvature="0" class="st6" d="M1170.5,556.7l-7.7,10.6l-13.6,20.3l-5.1-14.4l-11.1,5.5
			l-5.2-13.1l-6.8,6.6l-2.8-1.1l-8.9-4.9l0.5,10l6.8,3.8l-16.6,29.2l-6,2.8l-3.6-12.1l-0.8-19.6l-9.4-1.7l-3.1-7.6l7.2-14l8.1-0.8
			l4.5,3.9l12-1.3l-11.8-8.7l-10.4-3.2l-0.1-3.3l11.1-4.6l-3.5-7.3l11.7-8.1l10.6,5.4l19.3-3.3c0,0,8.1-3,17.2-6.3
			C1162.1,529.8,1168.3,542.7,1170.5,556.7L1170.5,556.7z"/>
		<path id="path1240" inkscape:connector-curvature="0" class="st6" d="M1058.1,504.5l-5.2,6.7l-9.1,12.4c-0.2,0.3-0.3,0.8-0.1,1.2
			l4,8.9c0.2,0.4,0.6,0.6,0.9,0.7c0.4,0,0.8-0.1,1-0.4l5.3-6.5l7.3,11.8l-18.9,12.8l-9.7-0.4c-0.4,0-0.9,0.2-1.1,0.6l-2.8,5.6
			c-0.2,0.3-0.2,0.8,0,1.1l5.3,9l-9.7-6.1l-2.5-4C1026.2,534.9,1039.7,515.8,1058.1,504.5L1058.1,504.5z"/>
		<path id="path1242" inkscape:connector-curvature="0" class="st6" d="M1044,594.6l-4.9-13.6l8.9-14.5l17.7,20.8l-21.5,32.5
			l-2.4-8.3l2.3-16.4C1044.1,595,1044,594.8,1044,594.6L1044,594.6z"/>
		<path id="path1244" inkscape:connector-curvature="0" class="st6" d="M1070.2,527.1l-6-18.5c12.9-4.5,21.2-4.8,24.3-4.7l-5.7,15.6
			L1070.2,527.1z"/>
	</g>
</g>
<g id="g1310">
	<g id="g1252">
		<rect id="rect1250" x="804" y="185.5" class="st6" width="9.4" height="8.6"/>
	</g>
	<g id="g1256">
		<rect id="rect1254" x="816.7" y="187.6" class="st36" width="44.2" height="4.3"/>
	</g>
	<g id="g1260">
		<rect id="rect1258" x="873.4" y="185.5" class="st13" width="9.4" height="8.6"/>
	</g>
	<g id="g1264">
		<rect id="rect1262" x="886.1" y="187.6" class="st36" width="38.4" height="4.3"/>
	</g>
	<g id="g1268">
		<rect id="rect1266" x="938.5" y="185.5" class="st37" width="9.4" height="8.6"/>
	</g>
	<g id="g1272">
		<rect id="rect1270" x="951.2" y="187.6" class="st36" width="38.4" height="4.3"/>
	</g>
	<g id="g1308">
		<g id="g1306">
			<rect id="rect1274" x="1009.4" y="150.6" class="st37" width="7.1" height="23.5"/>
			<rect id="rect1276" x="995.7" y="143.1" class="st36" width="7.1" height="31"/>
			<rect id="rect1278" x="982.1" y="155.3" class="st37" width="7.1" height="18.8"/>
			<rect id="rect1280" x="968.4" y="130.4" class="st6" width="7.1" height="43.7"/>
			<rect id="rect1282" x="954.7" y="138.3" class="st37" width="7.1" height="35.8"/>
			<rect id="rect1284" x="941.1" y="125.6" class="st6" width="7.1" height="48.5"/>
			<rect id="rect1286" x="927.4" y="154.5" class="st36" width="7.1" height="19.5"/>
			<rect id="rect1288" x="913.7" y="142.3" class="st6" width="7.1" height="31.8"/>
			<rect id="rect1290" x="900.1" y="132.1" class="st36" width="7.1" height="42"/>
			<rect id="rect1292" x="886.4" y="120.8" class="st37" width="7.1" height="53.3"/>
			<rect id="rect1294" x="872.7" y="128.4" class="st6" width="7.1" height="45.6"/>
			<rect id="rect1296" x="859" y="114.5" class="st36" width="7.1" height="59.6"/>
			<rect id="rect1298" x="845.4" y="137.5" class="st37" width="7.1" height="36.6"/>
			<rect id="rect1300" x="831.7" y="143.5" class="st6" width="7.1" height="30.6"/>
			<rect id="rect1302" x="818" y="126.9" class="st36" width="7.1" height="47.1"/>
			<rect id="rect1304" x="804.4" y="132.8" class="st37" width="7.1" height="41.3"/>
		</g>
	</g>
</g>
<g id="g736_1_">
	
		<rect id="rect734_1_" x="450.7" y="0.6" transform="matrix(0.7262 -0.6875 0.6875 0.7262 118.7731 313.8972)" class="st14" width="5.5" height="14.6"/>
</g>
<g id="g732_1_">
	
		<rect id="rect730_1_" x="421.4" y="-5.1" transform="matrix(0.4922 -0.8705 0.8705 0.4922 203.0916 376.3924)" class="st14" width="5.5" height="38.5"/>
</g>
</svg>
